<svg width="24" height="24" viewBox="0 0 24 24" fill="none" xmlns="http://www.w3.org/2000/svg">
<g clip-path="url(#clip0_917_11915)">
<path d="M11.4506 16.8714C15.2383 16.8081 19.7605 17.2895 23.0082 20.0091C23.3298 20.3261 23.5832 20.6582 23.8129 21.0472C23.8333 21.0783 23.8534 21.1099 23.8744 21.1419C24.0408 21.4195 24.0411 21.716 24.0004 22.0316C23.8857 22.2735 23.7154 22.4299 23.4769 22.5511C23.3042 22.606 23.1406 22.6067 22.9613 22.6058C22.923 22.6059 22.8846 22.6066 22.8451 22.6068C22.7157 22.6072 22.5859 22.606 22.4564 22.6058C22.363 22.6059 22.2696 22.6065 22.1761 22.6068C21.9187 22.6073 21.6611 22.6078 21.4037 22.6077C21.1263 22.6077 20.849 22.6083 20.5717 22.6087C20.0281 22.6095 19.4844 22.6096 18.9408 22.6097H17.2328C17.2013 22.6097 17.1695 22.6106 17.1371 22.6107H13.5511C12.489 22.6106 11.4267 22.6113 10.3646 22.6126C9.17164 22.614 7.97851 22.6156 6.78552 22.6155H6.30896C5.83609 22.6155 5.36289 22.6158 4.89001 22.6165C4.35226 22.6174 3.81449 22.6172 3.27673 22.6165C3.00232 22.6162 2.72791 22.6167 2.45349 22.6175H1.05603C1.00302 22.6182 1.00269 22.6178 0.948608 22.6185C0.665879 22.6146 0.414282 22.5356 0.207397 22.3353C-0.0015897 22.09 -0.0284977 21.9162 -0.0250244 21.5989C0.0851498 20.8055 0.862237 20.0453 1.46912 19.5784C3.9617 17.7194 7.2282 17.1318 10.266 16.9222C10.3134 16.9189 10.3607 16.9148 10.4095 16.9114C10.7563 16.8887 11.1031 16.8784 11.4506 16.8714ZM9.60974 12.4691C9.75454 12.5909 9.81114 12.729 9.88416 12.9017C9.89643 12.9306 9.90862 12.9598 9.92126 12.9896C9.96129 13.0843 10.0011 13.1797 10.0404 13.2747C10.0538 13.307 10.0676 13.3391 10.0814 13.3724C10.9222 15.3952 10.9222 15.396 10.9222 16.1253C10.8756 16.1286 10.8286 16.1317 10.7806 16.1351C9.90629 16.1973 9.03608 16.2678 8.16833 16.3939C8.11516 16.4016 8.06199 16.4094 8.0072 16.4173C7.96126 16.4242 7.91488 16.4307 7.86755 16.4378C7.7286 16.4535 7.5932 16.456 7.45349 16.4534C7.45021 16.4134 7.44613 16.3726 7.44275 16.3314C7.35503 15.2793 7.35571 15.2789 7.18494 14.2376C7.14353 14.0347 7.11561 13.8495 7.12537 13.6409C7.15182 13.6283 7.17819 13.6149 7.20544 13.6019C7.33386 13.5405 7.46278 13.4797 7.59119 13.4183C7.6389 13.3955 7.68655 13.3724 7.73572 13.3489C7.99981 13.2227 8.26401 13.0962 8.52771 12.9691C8.58019 12.9438 8.63282 12.9179 8.68689 12.8919C8.7887 12.8429 8.89081 12.7936 8.99255 12.7444C9.03904 12.7221 9.08528 12.6991 9.13318 12.6761C9.17418 12.6563 9.21593 12.6369 9.25818 12.6165C9.37385 12.5631 9.49102 12.5153 9.60974 12.4691ZM11.8129 13.6878C12.1407 13.7171 12.4421 13.8 12.7572 13.8929C12.8375 13.9162 12.8376 13.9161 12.9193 13.9398C13.0894 13.9892 13.2601 14.0394 13.4301 14.0892C13.5456 14.1228 13.6612 14.1562 13.7767 14.1898C14.0595 14.272 14.3427 14.355 14.6254 14.4378C14.5976 14.6771 14.5616 14.9108 14.5121 15.1468C14.4996 15.2067 14.4869 15.2667 14.474 15.3284C14.4608 15.3907 14.4481 15.4536 14.4349 15.5159C14.4216 15.5796 14.4082 15.6436 14.3949 15.7073C14.3625 15.8622 14.3299 16.0173 14.2972 16.1722C14.2595 16.1708 14.2209 16.1688 14.182 16.1673C13.1263 16.1287 12.0723 16.1195 11.016 16.1253C11.0398 15.9081 11.0667 15.7083 11.1361 15.5003C11.151 15.4555 11.1657 15.4107 11.181 15.3646C11.197 15.3178 11.2134 15.2711 11.2299 15.223C11.2463 15.1742 11.2627 15.1247 11.2797 15.0745C11.4402 14.6053 11.6224 14.1456 11.8129 13.6878ZM13.4535 10.4066C13.6751 10.4393 13.8678 10.5212 14.0726 10.6077C14.1276 10.6307 14.1279 10.6312 14.184 10.6546C14.2612 10.6869 14.3383 10.7198 14.4154 10.7523C14.5334 10.802 14.6518 10.8514 14.7699 10.9007C14.845 10.9321 14.9204 10.963 14.9955 10.9944C15.0307 11.0092 15.0666 11.0242 15.1029 11.0394C15.2587 11.105 15.4131 11.1716 15.5629 11.2503C15.4704 11.5973 15.3702 11.9414 15.264 12.2845C15.121 12.7501 14.9877 13.2179 14.8597 13.6878C14.329 13.5591 13.8021 13.4168 13.2767 13.2679C13.1521 13.2326 13.0274 13.1975 12.9027 13.1624C12.8231 13.1399 12.743 13.1175 12.6635 13.095C12.6264 13.0846 12.5893 13.0745 12.5511 13.0638C12.2923 12.9902 12.2919 12.9898 12.1879 12.9378C12.2927 12.5979 12.4291 12.2825 12.5834 11.9622C12.6077 11.9115 12.6315 11.8602 12.6566 11.8079C12.8934 11.323 13.165 10.8623 13.4535 10.4066ZM8.01111 9.84601C8.52232 10.0808 9.07281 11.17 9.28162 11.6722C9.23488 11.8124 9.23426 11.8125 9.16248 11.8616C9.13138 11.8766 9.09979 11.8921 9.06775 11.9075C9.03265 11.9247 8.99746 11.9416 8.9613 11.9593C8.92305 11.9774 8.88449 11.9953 8.84509 12.014C8.80558 12.0331 8.76568 12.0529 8.72498 12.0726C8.59819 12.1338 8.47122 12.1946 8.34412 12.2552C8.25986 12.2958 8.17541 12.3366 8.09119 12.3773C7.78658 12.524 7.48104 12.6699 7.17322 12.8099C7.13935 12.8253 7.10556 12.8409 7.07068 12.8568C6.98482 12.8904 6.98432 12.8909 6.89099 12.8909C6.87803 12.853 6.86431 12.8148 6.85095 12.7757C6.80168 12.6316 6.75293 12.4871 6.70349 12.3431C6.68233 12.2814 6.6611 12.2193 6.64001 12.1575C6.49813 11.742 6.34863 11.3308 6.18787 10.9222C6.52144 10.6934 6.86565 10.4843 7.21326 10.2776C7.31759 10.2155 7.42146 10.1524 7.52576 10.0901C7.59423 10.0494 7.59455 10.0497 7.66443 10.0081C7.93553 9.84402 7.93561 9.84446 8.01111 9.84601ZM7.45447 2.93292C7.96695 2.84598 8.4748 2.93688 8.88318 3.26398C9.02571 3.39941 9.04311 3.43184 9.06482 3.62726C9.04727 3.7969 9.04639 3.79723 8.94958 3.89093C8.79628 3.9954 8.63745 4.076 8.47009 4.1546C7.86143 4.45072 7.3067 4.80347 6.79724 5.25031C6.82591 5.25214 6.85463 5.25329 6.88416 5.25519C7.97901 5.32875 9.2047 5.51674 9.99548 6.36359C10.2643 6.70782 10.4275 7.06376 10.4183 7.50323C10.3963 7.66115 10.342 7.73008 10.2191 7.82843C9.94748 7.84978 9.77319 7.81552 9.52185 7.70245C8.54062 7.2836 7.48081 7.12456 6.41931 7.11945C6.38019 7.11922 6.34048 7.1187 6.30017 7.11847H6.08826C5.98938 7.12151 5.98931 7.12248 5.85974 7.17218C5.89532 7.21005 5.9305 7.2484 5.96716 7.28741C6.23233 7.57118 6.48971 7.8573 6.73279 8.16046C6.88924 8.35229 7.05184 8.53896 7.21521 8.72491C7.3428 8.87184 7.45285 9.01637 7.54724 9.18781C7.33516 9.32101 7.12215 9.45388 6.90955 9.58624C6.83336 9.63375 6.75709 9.68111 6.68103 9.72882L6.22791 10.012C6.17729 10.0433 6.1768 10.0437 6.12537 10.0755C6.08061 10.1034 6.08021 10.1036 6.03455 10.1321C5.95318 10.172 5.95298 10.1722 5.81287 10.1722C5.79828 10.1437 5.78297 10.1146 5.76794 10.0853C5.37978 9.3291 4.98909 8.57272 4.50037 7.87531C3.64479 8.58209 3.00939 9.44604 2.5033 10.4271C2.42896 10.5613 2.38401 10.6265 2.23865 10.679C2.05705 10.6914 1.9784 10.6502 1.82849 10.5472C1.48293 10.1162 1.4456 9.62543 1.50037 9.09406C1.679 8.07048 2.37336 7.30848 3.09412 6.60968C2.3219 6.58436 1.53092 6.69329 0.797241 6.93781C0.468063 6.96393 0.467221 6.96367 0.305054 6.87042C0.198571 6.68851 0.202093 6.53399 0.234741 6.32843C0.281725 6.17793 0.346005 6.04429 0.422241 5.90656C0.436501 5.87864 0.450518 5.85036 0.46521 5.82159C0.78106 5.29451 1.48137 5.02402 2.04236 4.87823C2.35941 4.80618 2.67556 4.75212 3.00037 4.73468C3.03421 4.73276 3.06805 4.7308 3.10291 4.72882C3.5979 4.71535 4.10743 4.78928 4.59412 4.87531C4.61571 4.84695 4.63729 4.81858 4.65955 4.78937C5.33354 3.92356 6.2544 3.16649 7.35974 2.95343C7.39097 2.94687 7.42229 2.93968 7.45447 2.93292ZM15.3754 7.54718C15.6012 7.56354 15.7606 7.68219 15.9408 7.80792C16.0027 7.85018 16.0644 7.89263 16.1263 7.93488C16.1726 7.96677 16.1731 7.96697 16.2201 7.99933C16.3582 8.09403 16.4986 8.18699 16.6381 8.2796L16.8754 8.43781C16.8124 8.64098 16.7333 8.82539 16.6371 9.01495C16.6163 9.05622 16.6163 9.05684 16.5951 9.09894C16.551 9.18625 16.5066 9.2735 16.4623 9.36066C16.2634 9.75247 16.0687 10.1452 15.891 10.5472C15.4828 10.3933 15.0783 10.2313 14.6771 10.0599C14.5881 10.0219 14.4988 9.98408 14.4095 9.94659C14.3533 9.92259 14.2966 9.89906 14.2386 9.87433C14.1878 9.85276 14.1367 9.83112 14.0844 9.8089C13.9686 9.75055 13.9689 9.74982 13.9222 9.65656C15.2069 7.71569 15.2069 7.71569 15.3754 7.54718ZM13.4535 1.84601C14.5642 0.966796 16.0333 1.5435 17.0629 2.29718C17.2539 2.45164 17.4307 2.62023 17.6049 2.79327C17.6674 2.85536 17.7316 2.91594 17.7953 2.97687C17.9992 3.17435 18.1722 3.37268 18.3285 3.60968C18.5256 3.58856 18.722 3.56631 18.9183 3.53839C20.2067 3.35633 21.5292 3.49063 22.6176 4.25421C22.9445 4.52121 23.2184 4.89013 23.2621 5.31769C23.2708 5.50374 23.2736 5.6315 23.1801 5.79523C22.966 5.91295 22.7256 5.87603 22.4974 5.81281C22.4291 5.79234 22.3606 5.7721 22.2924 5.75128C21.5273 5.53483 20.7164 5.44985 19.9222 5.48468C19.989 5.54399 19.9896 5.54407 20.058 5.6048C20.9607 6.41845 21.6973 7.38231 21.8441 8.62531C21.867 9.09205 21.7883 9.50334 21.516 9.89093C21.3787 10.039 21.3144 10.0732 21.1146 10.1048C20.9536 10.0785 20.9532 10.078 20.8617 9.98273C20.7488 9.81905 20.6614 9.64953 20.5726 9.47198C20.3729 9.08412 20.14 8.73702 19.8754 8.39093C19.8441 8.34966 19.8119 8.30845 19.7797 8.26593C19.532 7.94802 19.2608 7.65282 18.9847 7.35968C18.9534 7.32584 18.9213 7.292 18.889 7.25714C18.6202 6.97579 18.3117 6.74756 18.0004 6.51593C17.9876 6.54981 17.9745 6.58357 17.9613 6.61847C17.8712 6.83428 17.748 7.03032 17.6283 7.23077C17.6031 7.27402 17.5771 7.31708 17.5511 7.36163C17.5267 7.4026 17.5021 7.44345 17.4769 7.48566C17.4547 7.5232 17.4325 7.56124 17.4095 7.59991C17.3436 7.68733 17.3438 7.68793 17.2035 7.73468C17.1175 7.69788 17.1167 7.69788 17.0209 7.638C16.9857 7.61627 16.9507 7.59399 16.9144 7.57159C16.8588 7.5362 16.8586 7.53626 16.8021 7.50031C16.7454 7.46493 16.7447 7.46413 16.6869 7.42804C16.4155 7.25745 16.1492 7.08101 15.891 6.89093C16.0446 6.59646 16.2419 6.34928 16.4535 6.09406C15.114 6.05819 13.8013 6.24392 12.5677 6.78937C12.3826 6.87122 12.251 6.91801 12.0472 6.89093C11.9004 6.80757 11.8671 6.77232 11.8129 6.60968C11.7729 6.13024 11.9337 5.74031 12.2269 5.36652C12.9265 4.55537 14.0815 4.18515 15.1205 4.09308C15.424 4.0744 15.7276 4.07395 16.0316 4.07843C15.3052 3.37473 14.413 2.87345 13.5043 2.44464C13.4065 2.39053 13.4064 2.39052 13.3597 2.29718C13.3376 2.10122 13.332 2.00549 13.4535 1.84601Z" fill="black"/>
</g>
<defs>
<clipPath id="clip0_917_11915">
<rect width="24" height="24" fill="white"/>
</clipPath>
</defs>
</svg>
