<svg width="24" height="24" viewBox="0 0 24 24" fill="none" xmlns="http://www.w3.org/2000/svg">
<path d="M12 16.7874C11.6458 16.7874 11.3492 16.6674 11.11 16.4274C10.87 16.1882 10.75 15.8916 10.75 15.5374V6.5999L8.40625 8.94365C8.15625 9.19365 7.86458 9.31865 7.53125 9.31865C7.19792 9.31865 6.89583 9.18323 6.625 8.9124C6.375 8.6624 6.25542 8.36532 6.26625 8.02115C6.27625 7.67782 6.39583 7.39157 6.625 7.1624L11.125 2.6624C11.25 2.5374 11.3854 2.44865 11.5312 2.39615C11.6771 2.34448 11.8333 2.31865 12 2.31865C12.1667 2.31865 12.3229 2.34448 12.4688 2.39615C12.6146 2.44865 12.75 2.5374 12.875 2.6624L17.375 7.1624C17.625 7.4124 17.7446 7.70907 17.7337 8.0524C17.7238 8.39657 17.6042 8.68323 17.375 8.9124C17.125 9.1624 16.8283 9.2924 16.485 9.3024C16.1408 9.31323 15.8438 9.19365 15.5938 8.94365L13.25 6.5999V15.5374C13.25 15.8916 13.1304 16.1882 12.8913 16.4274C12.6513 16.6674 12.3542 16.7874 12 16.7874ZM4.5 21.7874C3.8125 21.7874 3.22417 21.5428 2.735 21.0536C2.245 20.5637 2 19.9749 2 19.2874V16.7874C2 16.4332 2.11958 16.1361 2.35875 15.8961C2.59875 15.657 2.89583 15.5374 3.25 15.5374C3.60417 15.5374 3.90125 15.657 4.14125 15.8961C4.38042 16.1361 4.5 16.4332 4.5 16.7874V19.2874H19.5V16.7874C19.5 16.4332 19.62 16.1361 19.86 15.8961C20.0992 15.657 20.3958 15.5374 20.75 15.5374C21.1042 15.5374 21.4008 15.657 21.64 15.8961C21.88 16.1361 22 16.4332 22 16.7874V19.2874C22 19.9749 21.7554 20.5637 21.2663 21.0536C20.7763 21.5428 20.1875 21.7874 19.5 21.7874H4.5Z" fill="black"/>
</svg>
