<svg width="24" height="24" viewBox="0 0 24 24" fill="none" xmlns="http://www.w3.org/2000/svg">
<path d="M12 21C11.6357 21 11.3306 20.8766 11.0846 20.6297C10.8377 20.3837 10.7143 20.0786 10.7143 19.7143V13.2857H4.28571C3.92143 13.2857 3.61586 13.1623 3.369 12.9154C3.123 12.6694 3 12.3643 3 12C3 11.6357 3.123 11.3301 3.369 11.0833C3.61586 10.8373 3.92143 10.7143 4.28571 10.7143H10.7143V4.28571C10.7143 3.92143 10.8377 3.61586 11.0846 3.369C11.3306 3.123 11.6357 3 12 3C12.3643 3 12.6699 3.123 12.9167 3.369C13.1627 3.61586 13.2857 3.92143 13.2857 4.28571V10.7143H19.7143C20.0786 10.7143 20.3837 10.8373 20.6297 11.0833C20.8766 11.3301 21 11.6357 21 12C21 12.3643 20.8766 12.6694 20.6297 12.9154C20.3837 13.1623 20.0786 13.2857 19.7143 13.2857H13.2857V19.7143C13.2857 20.0786 13.1627 20.3837 12.9167 20.6297C12.6699 20.8766 12.3643 21 12 21Z" fill="black"/>
</svg>
