<svg width="24" height="24" viewBox="0 0 24 24" fill="none" xmlns="http://www.w3.org/2000/svg">
<path d="M11.5062 0C11.8275 0.0347495 12.0684 0.13675 12.2904 0.374023C12.4812 0.705677 12.4541 1.05686 12.4525 1.42969C12.4525 1.49285 12.4525 1.55602 12.4525 1.62109C12.4525 1.83032 12.4521 2.03979 12.4515 2.24902C12.4514 2.39417 12.4516 2.53942 12.4515 2.68457C12.4513 3.06641 12.4504 3.44824 12.4496 3.83008C12.4487 4.28836 12.448 4.7468 12.4476 5.20508C12.4474 5.41927 12.447 5.63346 12.4467 5.84766H15.1869C15.1853 5.6755 15.1825 5.53123 15.181 5.29492C15.1785 4.88109 15.1752 4.46653 15.1693 4.05273C15.1646 3.71919 15.1626 3.38533 15.1615 3.05176C15.1607 2.9248 15.1589 2.79784 15.1566 2.6709C15.1535 2.49258 15.1525 2.31409 15.1527 2.13574C15.1518 2.03435 15.1508 1.93258 15.1498 1.82812C15.2383 1.36491 15.5419 1.07046 16.0199 1.0791C16.0907 1.07971 16.1618 1.08043 16.2347 1.08105C16.3075 1.08388 16.3805 1.08596 16.4554 1.08887C16.5285 1.08937 16.6018 1.09031 16.6771 1.09082C17.0354 1.09785 17.2997 1.10671 17.6117 1.29883C17.7203 1.51608 17.7066 1.67009 17.7035 1.91211C17.7027 1.99039 17.7014 2.06877 17.7006 2.14941C17.6996 2.20954 17.6987 2.27008 17.6976 2.33203H17.9554V1.81543H18.3861V5.84766H18.3929C18.3915 5.71875 18.3897 5.58986 18.389 5.46094C18.3879 5.40778 18.3872 5.35457 18.3861 5.2998C18.386 5.07341 18.3959 4.91253 18.5052 4.71191C18.6245 4.60051 18.6249 4.60073 18.8392 4.5293C18.8628 4.45858 18.8862 4.38731 18.9105 4.31445H19.9105V4.60059C19.9679 4.6197 20.0253 4.63851 20.0844 4.6582C20.1448 4.6862 20.2057 4.71432 20.2679 4.74316C20.3544 5.0026 20.348 5.23983 20.3461 5.50977C20.346 5.56326 20.3462 5.61676 20.3461 5.67188C20.3459 5.73038 20.3453 5.78915 20.3451 5.84766H20.5433V15.8115H18.3861V24H16.8851C16.8616 23.8666 16.8381 23.7331 16.8138 23.5957C16.6491 23.5006 16.5342 23.4498 16.3461 23.3896C16.2981 23.3728 16.25 23.3553 16.2006 23.3379C16.044 23.2832 15.8859 23.2313 15.7279 23.1787C15.6201 23.1415 15.5122 23.104 15.4047 23.0664C15.2427 23.0098 15.0808 22.9533 14.9183 22.8975C14.4507 22.7365 13.9942 22.5633 13.5394 22.3848C13.4169 22.3369 13.2938 22.2891 13.1713 22.2412C13.122 22.2218 13.0726 22.2026 13.0219 22.1826C12.9759 22.1649 12.9296 22.1471 12.8822 22.1289C12.833 22.1099 12.7835 22.0909 12.7328 22.0713C12.5162 22.0025 12.3962 22.0336 12.1674 22.0791C11.911 22.1604 11.6647 22.2535 11.4174 22.3477C11.3456 22.3746 11.2735 22.401 11.1996 22.4287C10.6273 22.6439 10.0573 22.8625 9.4906 23.085C9.21893 23.1912 8.94922 23.2961 8.66443 23.3838C8.54787 23.4198 8.54726 23.4192 8.4281 23.4561C8.36362 23.474 8.29922 23.4922 8.23279 23.5107C8.02436 23.618 8.02422 23.6183 8.02185 24H6.52087V15.8115H4.36365V5.88672H4.38708C4.38595 5.76499 4.38407 5.64323 4.38318 5.52148C4.38151 5.33641 4.37922 5.15088 4.37634 4.96582C4.37231 4.69986 4.36999 4.43396 4.36853 4.16797C4.36681 4.08542 4.36542 4.00204 4.36365 3.91699C4.36354 3.56586 4.37946 3.31614 4.54919 3.00488C4.73364 2.83255 4.73396 2.83229 5.0658 2.72168C5.10233 2.61207 5.13948 2.50258 5.17712 2.38965H6.72791V2.83301C6.81704 2.86272 6.90658 2.89224 6.99841 2.92285C7.09209 2.96626 7.18608 3.00899 7.28259 3.05371C7.41675 3.4562 7.40666 3.82441 7.40369 4.24316C7.40353 4.32628 7.40385 4.40948 7.40369 4.49512C7.40307 4.76039 7.40119 5.02575 7.39978 5.29102C7.39922 5.47097 7.39926 5.6511 7.3988 5.83105C7.39879 5.83654 7.39882 5.84217 7.3988 5.84766H8.14001V0.519531H8.49255V1.50684H8.98669C8.98424 1.46173 8.98238 1.41659 8.97986 1.37012C8.96688 0.955437 8.99145 0.67022 9.19861 0.307617C9.58779 -0.0572414 10.0577 0.00927847 10.5599 0.0078125C10.7015 0.00712731 10.8432 0.00514253 10.9847 0.00292969C11.0747 0.00256622 11.1646 0.00232759 11.2572 0.00195312C11.3804 0.000964259 11.3806 0.00100814 11.5062 0ZM8.02185 23.0898C9.04508 22.7503 9.04539 22.7504 10.0414 22.3789C10.1744 22.327 10.3077 22.2746 10.4408 22.2227C10.5035 22.1981 10.5666 22.1737 10.6312 22.1484C10.8774 22.0523 11.1247 21.9573 11.3724 21.8633C11.4444 21.8359 11.517 21.8094 11.5912 21.7812C11.6399 21.7628 11.6884 21.7436 11.7386 21.7246C11.5387 21.5535 11.2662 21.4691 10.9916 21.3711C10.9388 21.352 10.8858 21.3332 10.8314 21.3135C10.6621 21.2522 10.4922 21.1917 10.3226 21.1309C10.2116 21.0907 10.1007 21.0499 9.98962 21.0098C9.33559 20.7735 8.67874 20.5409 8.02185 20.3086V23.0898ZM16.8851 20.3086C16.7255 20.3086 16.544 20.4037 16.4086 20.4531C16.367 20.4683 16.3255 20.4844 16.2826 20.5C16.1456 20.55 16.0083 20.6001 15.8715 20.6504C15.8251 20.6674 15.7786 20.6847 15.7308 20.7021C14.87 21.0175 14.0165 21.3416 13.1683 21.6738C13.3624 21.837 13.6151 21.9203 13.8793 22.0146C13.9285 22.0325 13.978 22.05 14.0287 22.0684C14.1868 22.1257 14.3458 22.1833 14.5043 22.2402C14.6071 22.2774 14.7101 22.3143 14.8129 22.3516C15.5015 22.6007 16.1933 22.8452 16.8851 23.0898V20.3086ZM12.725 18.0684C12.3942 17.979 12.1746 18.0711 11.8842 18.1787C11.8429 18.1939 11.8016 18.209 11.7592 18.2246C11.6241 18.2744 11.4894 18.3246 11.3549 18.375C11.2616 18.4096 11.1679 18.444 11.0746 18.4785C10.0489 18.8589 9.03374 19.2531 8.02185 19.6514C8.02677 19.7478 8.02686 19.7482 8.09314 19.8535C8.27103 19.9426 8.27124 19.9433 8.49841 20.0186C8.53996 20.0334 8.58159 20.0482 8.62439 20.0635C8.76103 20.1122 8.89922 20.1602 9.0365 20.208C9.17841 20.2584 9.32058 20.3087 9.46228 20.3594C9.55796 20.3936 9.65361 20.4288 9.74939 20.4629C10.2508 20.6417 10.7433 20.8322 11.2347 21.0244C11.3493 21.0691 11.4644 21.1131 11.5795 21.1572C11.6849 21.1979 11.7899 21.2397 11.8939 21.2822C11.9425 21.3012 11.9913 21.3202 12.0414 21.3398C12.0832 21.3568 12.1253 21.3742 12.1683 21.3916C12.5213 21.4654 12.8392 21.3473 13.1478 21.2324C13.2642 21.1894 13.2647 21.1892 13.3832 21.1455C13.4654 21.1146 13.5484 21.0837 13.6332 21.0518C13.7191 21.0198 13.805 20.988 13.891 20.9561C14.8965 20.5817 15.8923 20.1946 16.8851 19.8037C16.8802 19.7073 16.8801 19.7069 16.8138 19.6016C16.6359 19.5125 16.6358 19.5118 16.4086 19.4365C16.367 19.4217 16.3254 19.4069 16.2826 19.3916C16.1461 19.3429 16.0086 19.2949 15.8715 19.2471C15.7295 19.1966 15.5875 19.1455 15.4457 19.0947C15.3499 19.0605 15.2535 19.0263 15.1576 18.9922C14.6562 18.8133 14.1636 18.6229 13.6722 18.4307C13.5047 18.3653 13.3366 18.3008 13.1683 18.2363C13.1156 18.216 13.0625 18.1957 13.0082 18.1748C12.9582 18.1562 12.9083 18.1373 12.8568 18.1182C12.8133 18.1018 12.7698 18.0852 12.725 18.0684ZM8.02185 19.1465C8.92512 18.8276 8.9253 18.8272 9.82458 18.5029C9.87842 18.4833 9.9322 18.4636 9.98767 18.4434C10.1544 18.3827 10.321 18.3215 10.4877 18.2607C10.6029 18.2188 10.7182 18.1767 10.8334 18.1348C11.1112 18.0336 11.3896 17.9324 11.6674 17.8311V17.6797C11.5774 17.6469 11.5774 17.6467 11.4857 17.6133C11.2053 17.5111 10.9243 17.4089 10.6439 17.3066C10.5938 17.2883 10.5433 17.2698 10.4916 17.251C9.81585 17.0045 9.14085 16.7571 8.47009 16.5039C8.25676 16.4082 8.25661 16.4082 8.02185 16.3652V19.1465ZM16.8851 16.3652C16.6954 16.3652 16.4693 16.4859 16.2992 16.5479C16.2204 16.5764 16.2206 16.5772 16.14 16.6064C16.0275 16.6473 15.9146 16.6875 15.8021 16.7285C15.6343 16.7896 15.4663 16.8513 15.2982 16.9121C14.5786 17.1734 13.8703 17.4462 13.1683 17.7305C13.4522 17.9039 13.7453 18.022 14.0775 18.1406C14.1305 18.1598 14.1841 18.1794 14.2386 18.1992C14.4073 18.2602 14.5765 18.3203 14.7455 18.3809C14.8571 18.4212 14.9688 18.4616 15.0804 18.502C15.6805 18.7187 16.2825 18.9333 16.8851 19.1465V16.3652ZM8.07361 15.8115C8.10193 15.8537 8.13891 15.8946 8.18884 15.9336C8.51003 16.1046 8.88382 16.2115 9.25037 16.3242C9.36511 16.3621 9.47979 16.4 9.59412 16.4385C9.82126 16.5147 10.0492 16.5899 10.2777 16.6641C10.7659 16.8243 11.2311 17.0128 11.6976 17.2021C12.1217 17.3779 12.1218 17.3782 12.5961 17.4268C12.8589 17.3553 13.1012 17.2617 13.347 17.165C13.4189 17.1377 13.4908 17.1102 13.5648 17.082C13.7906 16.9957 14.0158 16.908 14.2406 16.8203C14.4494 16.7396 14.6586 16.6586 14.8676 16.5781C14.9998 16.5269 15.1316 16.475 15.2631 16.4229C15.5476 16.3107 15.8265 16.2051 16.1312 16.123C16.3863 16.0528 16.6059 15.9896 16.8138 15.8594C16.8203 15.8432 16.8258 15.8271 16.8314 15.8115H8.07361ZM5.92712 14.248H11.2299V11.1211H5.92712V14.248ZM13.6771 14.248H18.9799V11.1211H13.6771V14.248ZM5.92712 10.2373H11.2299V7.54688H5.92712V10.2373ZM13.6771 10.2373H18.9799V7.54688H13.6771V10.2373ZM8.49255 5.84766H8.98669V5.45898H8.49255V5.84766ZM17.6976 5.84766H17.9554V5.68848H17.6976V5.84766ZM17.6976 5.34375H17.9554V5H17.6976V5.34375ZM8.49255 5.24707H8.98669V4.75293H8.49255V5.24707ZM17.6976 4.74121H17.9554V4.39746H17.6976V4.74121ZM8.49255 4.4707H8.98669V3.97656H8.49255V4.4707ZM17.6976 4.13867H17.9554V3.79492H17.6976V4.13867ZM8.49255 3.76465H8.98669V3.2002H8.49255V3.76465ZM17.6976 3.53613H17.9554V3.19238H17.6976V3.53613ZM8.49255 2.98926H8.98669V2.49512H8.49255V2.98926ZM17.6976 2.93457H17.9554V2.58984H17.6976V2.93457ZM8.49255 2.21289H8.98669V1.71875H8.49255V2.21289Z" fill="#121313"/>
</svg>
