<svg width="24" height="24" viewBox="0 0 24 24" fill="none" xmlns="http://www.w3.org/2000/svg">
<g clip-path="url(#clip0_920_11931)">
<path d="M14.6074 20.4541C15.8059 19.9728 17.1086 20.1537 18.2754 20.6084C18.8626 20.8335 19.4787 20.9791 20.1094 21C20.1873 21.0028 20.1874 21.003 20.2666 21.0059C21.2311 21.0232 22.0989 20.8346 22.9922 20.4756C23.3293 20.3416 23.6352 20.25 24 20.25V24H0V20.25C0.527153 20.3027 0.527582 20.303 0.695312 20.3652C0.732316 20.3786 0.769492 20.3924 0.807617 20.4062C0.845596 20.4206 0.883722 20.4345 0.922852 20.4492C1.00549 20.479 1.08825 20.5084 1.1709 20.5381C1.28128 20.5785 1.392 20.6196 1.50195 20.6611C2.94672 21.2061 4.51332 21.0849 5.92969 20.5283C7.15571 20.0534 8.43206 20.072 9.65332 20.5518C10.1233 20.735 10.6083 20.8872 11.1094 20.9531C11.1489 20.9583 11.1888 20.9634 11.2295 20.9688C12.4015 21.0974 13.5247 20.908 14.6074 20.4541ZM19.3594 13.0781H21.1406V14.4844L18.8438 14.5312C18.9011 14.6885 18.9585 14.8458 19.0176 15.0078C19.4223 16.1184 19.8257 17.2295 20.2256 18.3418C20.2651 18.4518 20.3051 18.5619 20.3447 18.6719C20.4 18.8251 20.4548 18.9785 20.5098 19.1318C20.5263 19.1775 20.5426 19.2234 20.5596 19.2705C20.5818 19.3326 20.5829 19.3323 20.6055 19.3955C20.6185 19.4317 20.6311 19.4686 20.6445 19.5059C20.6719 19.5937 20.6719 19.5939 20.6719 19.6875C19.9012 19.7133 19.2578 19.5619 18.5391 19.3066C18.4007 19.2579 18.2615 19.2116 18.1221 19.166C18.0358 19.1376 17.9493 19.1084 17.8633 19.0791C17.7804 19.0516 17.6969 19.0257 17.6123 19.0039C17.2704 18.9076 17.0302 18.6148 16.7812 18.375C16.7212 18.3208 16.6607 18.267 16.5996 18.2139C16.5705 18.1885 16.5417 18.1628 16.5117 18.1367C16.4272 18.0641 16.3417 17.9921 16.2568 17.9199C15.9871 17.6901 15.7196 17.459 15.46 17.2178C15.2475 17.0204 15.0267 16.8361 14.8008 16.6543C14.5785 16.4705 14.3678 16.2741 14.1562 16.0781C13.9113 16.1486 13.763 16.3067 13.585 16.4795C13.5268 16.5353 13.4685 16.5909 13.4102 16.6465C13.3846 16.6712 13.3593 16.6962 13.333 16.7217C13.2658 16.7815 13.2656 16.7812 13.1719 16.8281V16.9219C13.2418 16.9842 13.3147 17.0431 13.3887 17.1006C13.6069 17.2747 13.8127 17.4568 14.0156 17.6484C14.2483 17.8676 14.4871 18.0741 14.7363 18.2744C14.8687 18.3823 14.9979 18.4935 15.126 18.6064C15.1648 18.6407 15.2041 18.6747 15.2441 18.71C15.3285 18.7965 15.3281 18.7969 15.3281 18.8906C15.2714 18.9048 15.2146 18.919 15.1562 18.9336C15.0787 18.9533 15.0013 18.9733 14.9238 18.9932C14.8836 19.0035 14.8433 19.0138 14.8018 19.0244C14.4956 19.105 14.2054 19.2053 13.9121 19.3252C13.7816 19.3591 13.7809 19.3599 13.6885 19.335C13.5491 19.234 13.4186 19.1238 13.2891 19.0107C13.246 18.9735 13.2459 18.9734 13.2021 18.9355C12.9638 18.7285 12.7308 18.5152 12.499 18.3008C12.3514 18.1654 12.2002 18.0352 12.0469 17.9062C11.8658 17.9812 11.7383 18.1041 11.5986 18.2373C11.3753 18.4464 11.1456 18.6434 10.9053 18.833C10.7777 18.9363 10.7777 18.9367 10.6611 19.0625C10.3756 19.3574 10.3756 19.357 10.207 19.3623C10.0805 19.3243 9.9647 19.272 9.84375 19.2188C9.70996 19.1753 9.57475 19.1371 9.43945 19.0986C9.37341 19.079 9.30725 19.0596 9.24121 19.04C9.05258 18.9852 8.86273 18.9372 8.67188 18.8906C8.74217 18.7153 8.83999 18.6328 8.98828 18.5186C9.20729 18.3444 9.41422 18.1622 9.61816 17.9707C9.67431 17.9181 9.73096 17.8651 9.78711 17.8125C9.82591 17.7761 9.82632 17.7757 9.86621 17.7383C10.142 17.4814 10.4328 17.2452 10.7285 17.0117C10.7614 16.9821 10.7943 16.9524 10.8281 16.9219C10.839 16.8241 10.8393 16.8236 10.7646 16.7617C10.7345 16.7362 10.7039 16.7109 10.6729 16.6846C10.6393 16.656 10.6059 16.6271 10.5713 16.5977C10.3612 16.4232 10.1496 16.2501 9.9375 16.0781C9.77305 16.1494 9.65847 16.2469 9.52734 16.3682C9.48579 16.4062 9.44418 16.4442 9.40137 16.4834C9.36173 16.5198 9.32209 16.5563 9.28125 16.5938C9.10843 16.7478 8.93314 16.8988 8.75684 17.0488C8.48706 17.2786 8.21957 17.5098 7.95996 17.751C7.74772 17.9481 7.52809 18.1329 7.30078 18.3125C7.18669 18.4091 7.08602 18.5118 6.9834 18.6201C6.63743 18.9742 6.25475 19.0664 5.78516 19.1865C5.61745 19.2338 5.4597 19.2995 5.2998 19.3682C4.65344 19.636 4.02075 19.6982 3.32812 19.6875C3.42706 19.3441 3.54037 19.0072 3.66113 18.6709C3.67968 18.619 3.69866 18.5672 3.71777 18.5137C3.77827 18.3444 3.83873 18.175 3.89941 18.0059C3.9413 17.8888 3.98351 17.7713 4.02539 17.6543C4.39863 16.6119 4.77675 15.5714 5.15625 14.5312L2.85938 14.4844V13.0781H4.64062V8.85938H19.3594V13.0781ZM17.25 14.4844C16.1754 14.3658 16.1753 14.3659 15.3066 14.8779C15.2267 14.9897 15.2264 14.9899 15.2344 15.0938C15.3043 15.1561 15.3772 15.215 15.4512 15.2725C15.6694 15.4466 15.8752 15.6287 16.0781 15.8203C16.2684 15.9995 16.4598 16.1726 16.6641 16.3359C16.8983 16.5233 17.1158 16.7251 17.334 16.9307C17.5422 17.1258 17.7573 17.3076 17.9814 17.4844C18.0939 17.578 18.094 17.5782 18.2197 17.707C18.3142 17.8233 18.3141 17.8234 18.4219 17.8125C18.3561 17.4816 18.2579 17.1732 18.1426 16.8564C18.1246 16.8065 18.1064 16.7566 18.0879 16.7051C18.0499 16.5997 18.0119 16.494 17.9736 16.3887C17.9157 16.2291 17.8582 16.0689 17.8008 15.9092C17.7635 15.8061 17.7258 15.7027 17.6885 15.5996C17.6715 15.5526 17.6542 15.5055 17.6367 15.457C17.5172 15.1287 17.3868 14.8059 17.25 14.4844ZM7.44727 14.458C7.37956 14.4601 7.31186 14.4621 7.24414 14.4639C7.07944 14.4681 6.91454 14.476 6.75 14.4844C6.5771 14.8868 6.42308 15.294 6.27734 15.707C6.25565 15.7682 6.23363 15.8295 6.21191 15.8906C6.15551 16.0494 6.09915 16.2083 6.04297 16.3672C5.98531 16.5302 5.92794 16.6935 5.87012 16.8564C5.75712 17.1749 5.64392 17.4939 5.53125 17.8125C5.74071 17.8125 5.83432 17.6729 5.97656 17.5342C6.17426 17.3456 6.37201 17.1625 6.58594 16.9922C6.79017 16.8288 6.98162 16.6557 7.17188 16.4766C7.40056 16.2612 7.6353 16.0594 7.88086 15.8633C8.08007 15.6968 8.26866 15.5184 8.45703 15.3398C8.66293 15.1454 8.66279 15.1452 8.76562 15.0938C8.64792 14.8235 8.45398 14.635 8.20312 14.4844C7.94806 14.4346 7.70554 14.4439 7.44727 14.458ZM10.4062 14.4844C10.5724 14.6505 10.7397 14.8125 10.9131 14.9707C10.9378 14.9933 10.9629 15.0158 10.9883 15.0391C11.1826 15.2162 11.3793 15.3904 11.5781 15.5625C11.6485 15.624 11.7188 15.6855 11.7891 15.7471C11.8205 15.7746 11.8524 15.8018 11.8848 15.8301C11.9074 15.8499 11.9298 15.8702 11.9531 15.8906C12.1284 15.8165 12.2483 15.7063 12.3867 15.5771C12.4329 15.5345 12.4792 15.4919 12.5254 15.4492C12.5686 15.4093 12.6117 15.3693 12.6562 15.3281C12.8276 15.1742 13.0021 15.0236 13.1797 14.877C13.2054 14.8557 13.2313 14.8344 13.2578 14.8125C13.3094 14.77 13.3613 14.7278 13.4131 14.6855C13.4742 14.6352 13.534 14.5832 13.5938 14.5312V14.4844H10.4062ZM7.07812 11.6719H8.48438V10.2656H7.07812V11.6719ZM9.89062 11.6719H11.2969V10.2656H9.89062V11.6719ZM12.7031 11.6719H14.1094V10.2656H12.7031V11.6719ZM15.5156 11.6719H16.9219V10.2656H15.5156V11.6719ZM18 7.45312H6V3.23438H18V7.45312ZM8.29688 6.04688H9.70312V4.64062H8.29688V6.04688ZM11.2969 6.04688H12.7031V4.64062H11.2969V6.04688ZM14.2969 6.04688H15.7031V4.64062H14.2969V6.04688ZM8.29688 1.82812H6.89062V0H8.29688V1.82812Z" fill="black"/>
</g>
<defs>
<clipPath id="clip0_920_11931">
<rect width="24" height="24" fill="white"/>
</clipPath>
</defs>
</svg>
