<svg width="24" height="24" viewBox="0 0 24 24" fill="none" xmlns="http://www.w3.org/2000/svg">
<g clip-path="url(#clip0_920_11932)">
<path d="M15.4961 19.1152C16.1963 19.1763 16.71 19.4192 17.2129 19.9004C17.6981 20.3298 18.3006 20.5516 18.9453 20.541C19.6535 20.4892 20.1897 20.1829 20.6963 19.7012C21.1851 19.2479 21.8001 19.1208 22.4531 19.125C23.0684 19.1542 23.5408 19.4345 24 19.8281V24H0V19.8281C0.981059 18.9697 2.33283 18.8641 3.35449 19.7441C3.4339 19.8171 3.51362 19.8906 3.59277 19.9639C4.04894 20.3716 4.65395 20.55 5.26074 20.541C5.91871 20.4908 6.43184 20.2044 6.90039 19.7568C7.42599 19.291 8.02856 19.125 8.71875 19.125C9.44913 19.1819 9.97149 19.5031 10.4971 20.001C10.9312 20.3891 11.5343 20.5583 12.1084 20.543C12.7623 20.4832 13.2308 20.2397 13.7031 19.7959C14.2129 19.3534 14.817 19.1021 15.4961 19.1152ZM22.9688 15.2812H21.7969V16.4531H19.7812V19.0312C19.0812 19.2938 18.4104 19.2756 17.7236 18.9707C17.4659 18.8249 17.2616 18.6344 17.0459 18.4336C16.5727 18.0305 16.0692 17.8857 15.4688 17.7656V16.4531H8.53125V17.7656L8.16504 17.8418C7.60578 17.9701 7.23379 18.2147 6.80957 18.5908C6.30545 19.0301 5.67987 19.2512 5.00879 19.2324C4.3511 19.163 4.35098 19.1635 4.21875 19.0312C4.21436 18.9507 4.21368 18.8697 4.21387 18.7891V18.4629C4.21393 18.4057 4.21478 18.348 4.21484 18.2891C4.21511 18.1058 4.21523 17.9225 4.21582 17.7393C4.21606 17.6153 4.2166 17.4912 4.2168 17.3672C4.21728 17.0625 4.21786 16.7578 4.21875 16.4531H2.20312V15.2812H1.03125V13.8281H22.9688V15.2812ZM1.3125 4.45312C3.02576 4.29187 3.02603 4.29188 3.47852 4.5332C3.71101 4.7539 3.83052 5.03558 3.95605 5.32617C4.07962 5.58613 4.24738 5.8156 4.41309 6.0498C4.50899 6.18626 4.60199 6.32466 4.69531 6.46289C4.73283 6.51822 4.77105 6.5736 4.80859 6.62891C4.88529 6.74197 4.96142 6.85567 5.03809 6.96875C5.13186 7.10705 5.22646 7.24555 5.32031 7.38379C5.37243 7.46059 5.4245 7.53742 5.47656 7.61426C5.50778 7.66022 5.53913 7.70655 5.57129 7.75391C5.59876 7.7944 5.626 7.83523 5.6543 7.87695C5.71164 7.96471 5.71187 7.9646 5.76562 8.01562L5.8125 5.8125H10.5V8.0625H11.8594V9.51562H10.5V12.4688H2.95312V9.51562H1.59375V8.0625H2.4375C2.41128 7.98208 2.38542 7.90122 2.3584 7.81836C2.10426 7.03609 1.85581 6.25214 1.61133 5.4668C1.59646 5.41912 1.58172 5.37138 1.56641 5.32227C1.5241 5.18652 1.48162 5.05083 1.43945 4.91504C1.4266 4.8738 1.41363 4.83252 1.40039 4.79004C1.31231 4.50566 1.3125 4.50541 1.3125 4.45312ZM18.6562 0C18.8747 1.48735 19.0871 2.97558 19.292 4.46484C19.314 4.62489 19.3363 4.78528 19.3584 4.94531C19.4357 5.50601 19.5128 6.06721 19.5898 6.62793C19.6613 7.14781 19.7329 7.66767 19.8047 8.1875C19.8669 8.63817 19.9293 9.08933 19.9912 9.54004C20.028 9.80751 20.0646 10.0753 20.1016 10.3428C20.1361 10.5925 20.1709 10.843 20.2051 11.0928C20.2176 11.1839 20.2305 11.2751 20.2432 11.3662C20.2605 11.491 20.277 11.6164 20.2939 11.7412C20.299 11.777 20.3044 11.8127 20.3096 11.8496C20.3164 11.9002 20.3163 11.9005 20.3232 11.9521C20.3272 11.9808 20.3309 12.0095 20.335 12.0391C20.3467 12.1818 20.3438 12.3255 20.3438 12.4688H12.8438C12.8438 12.047 12.8437 12.0469 12.8691 11.8623C12.8748 11.8202 12.8809 11.7778 12.8867 11.7344C12.8931 11.6894 12.8987 11.644 12.9053 11.5977C12.9119 11.549 12.9189 11.5003 12.9258 11.4502C12.9481 11.2872 12.9705 11.1239 12.9932 10.9609C13.0093 10.844 13.0259 10.7272 13.042 10.6104C13.0811 10.3259 13.1207 10.0412 13.1602 9.75684C13.2061 9.4256 13.2512 9.09397 13.2969 8.7627C13.3783 8.17164 13.4602 7.58026 13.542 6.98926C13.6214 6.41564 13.7012 5.84124 13.7803 5.26758C13.7851 5.23245 13.7899 5.19732 13.7949 5.16113C13.7998 5.12583 13.8046 5.09008 13.8096 5.05371L13.8535 4.73438C13.9289 4.18754 14.0045 3.64056 14.0801 3.09375C14.1074 2.89564 14.1348 2.69714 14.1621 2.49902C14.2095 2.15558 14.2571 1.81216 14.3047 1.46875C14.3205 1.35454 14.3358 1.24019 14.3516 1.12598C14.373 0.970468 14.3944 0.814666 14.416 0.65918C14.4222 0.613751 14.4291 0.56829 14.4355 0.521484C14.4413 0.479913 14.4471 0.438339 14.4531 0.395508C14.4606 0.34181 14.4602 0.3416 14.4678 0.287109C14.4837 0.190549 14.5075 0.09494 14.5312 0H18.6562ZM17.2549 9.36816C17.096 9.52676 16.9363 9.6853 16.7773 9.84375C16.6241 9.99644 16.4714 10.1498 16.3184 10.3027C16.2599 10.3611 16.2011 10.4192 16.1426 10.4775C16.0608 10.559 15.9791 10.641 15.8975 10.7227C15.8731 10.7469 15.8484 10.7709 15.8232 10.7959C15.7077 10.8895 15.7073 10.8899 15.6562 11.0156H18.7031L18.5449 9.78516C18.5286 9.6572 18.5119 9.5293 18.4951 9.39746C18.4819 9.29603 18.4693 9.19419 18.4561 9.09277C18.4495 9.04022 18.4423 8.98773 18.4355 8.93359C18.4289 8.88318 18.4229 8.83222 18.416 8.78027C18.4104 8.73674 18.4042 8.69328 18.3984 8.64844C18.3749 8.53276 18.3392 8.44598 18.2812 8.34375C17.9389 8.68501 17.5969 9.02662 17.2549 9.36816ZM16.6885 5.65137C16.5224 5.81554 16.3557 5.97957 16.1885 6.14258C16.0269 6.30004 15.8661 6.45815 15.7061 6.61719C15.645 6.67755 15.5842 6.73816 15.5225 6.79785C15.0613 7.23282 15.0609 7.2326 14.9062 7.82812C14.8948 7.9105 14.8829 7.99301 14.8701 8.0752C14.8586 8.16177 14.8472 8.24835 14.8359 8.33496C14.8298 8.38112 14.8237 8.42803 14.8174 8.47559C14.7982 8.62109 14.7788 8.76657 14.7598 8.91211C14.7467 9.0116 14.7338 9.11145 14.7207 9.21094C14.6888 9.45312 14.6566 9.69528 14.625 9.9375C15.1715 9.47245 15.7004 8.98817 16.2207 8.49414C16.4072 8.31738 16.5957 8.14294 16.7881 7.97266C17.6664 7.25606 17.6663 7.25571 18.1377 6.27637C18.1623 5.72205 18.0335 5.08289 17.7656 4.59375C17.4055 4.94513 17.0463 5.29765 16.6885 5.65137ZM15.6299 2.57812C15.596 2.817 15.5624 3.05608 15.5283 3.29492C15.5008 3.48754 15.4735 3.68039 15.4463 3.87305C15.4359 3.94629 15.4255 4.01954 15.415 4.09277C15.4003 4.19576 15.3856 4.29932 15.3711 4.40234C15.3628 4.46092 15.3543 4.51973 15.3457 4.58008C15.3306 4.7117 15.3244 4.83651 15.3281 4.96875C15.4377 4.87519 15.547 4.78144 15.6562 4.6875C15.691 4.65766 15.7259 4.62742 15.7617 4.59668C16.9625 3.67769 16.9627 3.67769 17.6611 2.43652C17.6674 2.04662 17.535 1.78405 17.3906 1.40625H15.7969C15.7134 1.99203 15.713 1.9923 15.6299 2.57812ZM5.76562 0.0761719C5.91506 0.0772137 6.06445 0.0796371 6.21387 0.0820312C6.31576 0.0829721 6.41764 0.0841947 6.51953 0.0849609C6.7682 0.086857 7.01696 0.090162 7.26562 0.09375V1.5H5.625L5.53125 1.875C5.37238 2.22387 5.12484 2.41937 4.78125 2.57812C4.5871 2.63526 4.39706 2.6312 4.19629 2.62988C4.13894 2.62978 4.13858 2.62901 4.08008 2.62891C3.95833 2.62864 3.83659 2.62853 3.71484 2.62793C3.63216 2.62769 3.54948 2.62714 3.4668 2.62695C3.26434 2.62644 3.06183 2.62596 2.85938 2.625V3.04688H1.40625C1.37687 2.06279 1.37688 2.06278 1.69629 1.5791C2.03894 1.25168 2.37263 1.164 2.83496 1.16699C2.87319 1.16706 2.91178 1.1679 2.95117 1.16797C3.07292 1.16823 3.19466 1.16835 3.31641 1.16895C3.39909 1.16918 3.48177 1.16973 3.56445 1.16992C3.76691 1.17044 3.96942 1.17091 4.17188 1.17188C4.18006 1.14069 4.18786 1.10928 4.19629 1.07715C4.26085 0.844859 4.31623 0.655855 4.48242 0.474609C4.51106 0.441859 4.53983 0.408743 4.56934 0.375C4.89506 0.11594 5.21541 0.0664644 5.62207 0.0751953C5.69297 0.0755933 5.6933 0.0757659 5.76562 0.0761719Z" fill="black"/>
</g>
<defs>
<clipPath id="clip0_920_11932">
<rect width="24" height="24" fill="white"/>
</clipPath>
</defs>
</svg>
