<svg width="24" height="24" viewBox="0 0 24 24" fill="none" xmlns="http://www.w3.org/2000/svg">
<path d="M10.9375 15.0016V18.375C10.9375 18.676 11.0395 18.9282 11.2435 19.1315C11.4468 19.3355 11.699 19.4375 12 19.4375C12.301 19.4375 12.5536 19.3355 12.7576 19.1315C12.9609 18.9282 13.0625 18.676 13.0625 18.375V15.0016L14.0187 15.9578C14.125 16.0641 14.2447 16.1438 14.3779 16.1969C14.5103 16.25 14.6431 16.272 14.7763 16.2627C14.9088 16.2542 15.037 16.2234 15.1609 16.1703C15.2849 16.1172 15.4 16.0375 15.5063 15.9312C15.701 15.7188 15.803 15.4708 15.8123 15.1875C15.8208 14.9042 15.7188 14.6562 15.5063 14.4438L12.7437 11.6812C12.6375 11.575 12.5224 11.4996 12.3984 11.4549C12.2745 11.411 12.1417 11.3891 12 11.3891C11.8583 11.3891 11.7255 11.411 11.6016 11.4549C11.4776 11.4996 11.3625 11.575 11.2563 11.6812L8.49375 14.4438C8.28125 14.6562 8.1796 14.9042 8.18881 15.1875C8.19731 15.4708 8.30781 15.7188 8.52031 15.9312C8.73281 16.126 8.98073 16.228 9.26406 16.2373C9.5474 16.2457 9.79531 16.1438 10.0078 15.9312L10.9375 15.0016ZM5.625 22.625C5.04062 22.625 4.54054 22.4171 4.12475 22.0013C3.70825 21.5848 3.5 21.0844 3.5 20.5V3.5C3.5 2.91562 3.70825 2.41519 4.12475 1.99869C4.54054 1.5829 5.04062 1.375 5.625 1.375H13.2484C13.5318 1.375 13.802 1.42813 14.0591 1.53438C14.3155 1.64063 14.5411 1.79115 14.7359 1.98594L19.8891 7.13906C20.0839 7.33385 20.2344 7.55946 20.3406 7.81588C20.4469 8.073 20.5 8.34323 20.5 8.62656V20.5C20.5 21.0844 20.2921 21.5848 19.8763 22.0013C19.4598 22.4171 18.9594 22.625 18.375 22.625H5.625ZM13.0625 7.75C13.0625 8.05104 13.1645 8.30321 13.3685 8.5065C13.5718 8.7105 13.824 8.8125 14.125 8.8125H18.375L13.0625 3.5V7.75Z" fill="black"/>
</svg>
