<svg width="24" height="24" viewBox="0 0 24 24" fill="none" xmlns="http://www.w3.org/2000/svg">
<g clip-path="url(#clip0_951_12000)">
<mask id="path-1-inside-1_951_12000" fill="white">
<path d="M15.4961 19.1152C16.1963 19.1763 16.71 19.4192 17.2129 19.9004C17.6981 20.3298 18.3006 20.5516 18.9453 20.541C19.6535 20.4892 20.1897 20.1829 20.6963 19.7012C21.1851 19.2479 21.8001 19.1208 22.4531 19.125C23.0684 19.1542 23.5408 19.4345 24 19.8281V24H0V19.8281C0.981059 18.9697 2.33283 18.8641 3.35449 19.7441C3.4339 19.8171 3.51362 19.8906 3.59277 19.9639C4.04894 20.3716 4.65395 20.55 5.26074 20.541C5.91871 20.4908 6.43184 20.2044 6.90039 19.7568C7.42599 19.291 8.02856 19.125 8.71875 19.125C9.44913 19.1819 9.97149 19.5031 10.4971 20.001C10.9312 20.3891 11.5343 20.5583 12.1084 20.543C12.7623 20.4832 13.2308 20.2397 13.7031 19.7959C14.2129 19.3534 14.817 19.1021 15.4961 19.1152ZM22.9688 15.2812H21.7969V16.4531H19.7812V19.0312C19.0812 19.2938 18.4104 19.2756 17.7236 18.9707C17.4659 18.8249 17.2616 18.6344 17.0459 18.4336C16.5727 18.0305 16.0692 17.8857 15.4688 17.7656V16.4531H8.53125V17.7656L8.16504 17.8418C7.60578 17.9701 7.23379 18.2147 6.80957 18.5908C6.30545 19.0301 5.67987 19.2512 5.00879 19.2324C4.3511 19.163 4.35098 19.1635 4.21875 19.0312C4.21436 18.9507 4.21368 18.8697 4.21387 18.7891V18.4629C4.21393 18.4057 4.21478 18.348 4.21484 18.2891C4.21511 18.1058 4.21523 17.9225 4.21582 17.7393C4.21606 17.6153 4.2166 17.4912 4.2168 17.3672C4.21728 17.0625 4.21786 16.7578 4.21875 16.4531H2.20312V15.2812H1.03125V13.8281H22.9688V15.2812ZM1.3125 4.45312C3.02576 4.29187 3.02603 4.29188 3.47852 4.5332C3.71101 4.7539 3.83052 5.03558 3.95605 5.32617C4.07962 5.58613 4.24738 5.8156 4.41309 6.0498C4.50899 6.18626 4.60199 6.32466 4.69531 6.46289C4.73283 6.51822 4.77105 6.5736 4.80859 6.62891C4.88529 6.74197 4.96142 6.85567 5.03809 6.96875C5.13186 7.10705 5.22646 7.24555 5.32031 7.38379C5.37243 7.46059 5.4245 7.53742 5.47656 7.61426C5.50778 7.66022 5.53913 7.70655 5.57129 7.75391C5.59876 7.7944 5.626 7.83523 5.6543 7.87695C5.71164 7.96471 5.71187 7.9646 5.76562 8.01562L5.8125 5.8125H10.5V8.0625H11.8594V9.51562H10.5V12.4688H2.95312V9.51562H1.59375V8.0625H2.4375C2.41128 7.98208 2.38542 7.90122 2.3584 7.81836C2.10426 7.03609 1.85581 6.25214 1.61133 5.4668C1.59646 5.41912 1.58172 5.37138 1.56641 5.32227C1.5241 5.18652 1.48162 5.05083 1.43945 4.91504C1.4266 4.8738 1.41363 4.83252 1.40039 4.79004C1.31231 4.50566 1.3125 4.50541 1.3125 4.45312ZM18.6562 0C18.8747 1.48735 19.0871 2.97558 19.292 4.46484C19.314 4.62489 19.3363 4.78528 19.3584 4.94531C19.4357 5.50601 19.5128 6.06721 19.5898 6.62793C19.6613 7.14781 19.7329 7.66767 19.8047 8.1875C19.8669 8.63817 19.9293 9.08933 19.9912 9.54004C20.028 9.80751 20.0646 10.0753 20.1016 10.3428C20.1361 10.5925 20.1709 10.843 20.2051 11.0928C20.2176 11.1839 20.2305 11.2751 20.2432 11.3662C20.2605 11.491 20.277 11.6164 20.2939 11.7412C20.299 11.777 20.3044 11.8127 20.3096 11.8496C20.3164 11.9002 20.3163 11.9005 20.3232 11.9521C20.3272 11.9808 20.3309 12.0095 20.335 12.0391C20.3467 12.1818 20.3438 12.3255 20.3438 12.4688H12.8438C12.8438 12.047 12.8437 12.0469 12.8691 11.8623C12.8748 11.8202 12.8809 11.7778 12.8867 11.7344C12.8931 11.6894 12.8987 11.644 12.9053 11.5977C12.9119 11.549 12.9189 11.5003 12.9258 11.4502C12.9481 11.2872 12.9705 11.1239 12.9932 10.9609C13.0093 10.844 13.0259 10.7272 13.042 10.6104C13.0811 10.3259 13.1207 10.0412 13.1602 9.75684C13.2061 9.4256 13.2512 9.09397 13.2969 8.7627C13.3783 8.17164 13.4602 7.58026 13.542 6.98926C13.6214 6.41564 13.7012 5.84124 13.7803 5.26758C13.7851 5.23245 13.7899 5.19732 13.7949 5.16113C13.7998 5.12583 13.8046 5.09008 13.8096 5.05371L13.8535 4.73438C13.9289 4.18754 14.0045 3.64056 14.0801 3.09375C14.1074 2.89564 14.1348 2.69714 14.1621 2.49902C14.2095 2.15558 14.2571 1.81216 14.3047 1.46875C14.3205 1.35454 14.3358 1.24019 14.3516 1.12598C14.373 0.970468 14.3944 0.814666 14.416 0.65918C14.4222 0.613751 14.4291 0.56829 14.4355 0.521484C14.4413 0.479913 14.4471 0.438339 14.4531 0.395508C14.4606 0.34181 14.4602 0.3416 14.4678 0.287109C14.4837 0.190549 14.5075 0.09494 14.5312 0H18.6562ZM17.2549 9.36816C17.096 9.52676 16.9363 9.6853 16.7773 9.84375C16.6241 9.99644 16.4714 10.1498 16.3184 10.3027C16.2599 10.3611 16.2011 10.4192 16.1426 10.4775C16.0608 10.559 15.9791 10.641 15.8975 10.7227C15.8731 10.7469 15.8484 10.7709 15.8232 10.7959C15.7077 10.8895 15.7073 10.8899 15.6562 11.0156H18.7031L18.5449 9.78516C18.5286 9.6572 18.5119 9.5293 18.4951 9.39746C18.4819 9.29603 18.4693 9.19419 18.4561 9.09277C18.4495 9.04022 18.4423 8.98773 18.4355 8.93359C18.4289 8.88318 18.4229 8.83222 18.416 8.78027C18.4104 8.73674 18.4042 8.69328 18.3984 8.64844C18.3749 8.53276 18.3392 8.44598 18.2812 8.34375C17.9389 8.68501 17.5969 9.02662 17.2549 9.36816ZM16.6885 5.65137C16.5223 5.81554 16.3557 5.97957 16.1885 6.14258C16.0269 6.30004 15.8661 6.45815 15.7061 6.61719C15.645 6.67755 15.5842 6.73816 15.5225 6.79785C15.0613 7.23282 15.0609 7.2326 14.9062 7.82812C14.8948 7.9105 14.8829 7.99301 14.8701 8.0752C14.8586 8.16177 14.8472 8.24835 14.8359 8.33496C14.8298 8.38112 14.8237 8.42803 14.8174 8.47559C14.7982 8.62109 14.7788 8.76657 14.7598 8.91211C14.7467 9.0116 14.7338 9.11145 14.7207 9.21094C14.6888 9.45312 14.6566 9.69528 14.625 9.9375C15.1715 9.47245 15.7004 8.98817 16.2207 8.49414C16.4072 8.31738 16.5957 8.14294 16.7881 7.97266C17.6664 7.25606 17.6663 7.25571 18.1377 6.27637C18.1623 5.72205 18.0335 5.08289 17.7656 4.59375C17.4055 4.94513 17.0463 5.29765 16.6885 5.65137ZM15.6299 2.57812C15.596 2.817 15.5624 3.05608 15.5283 3.29492C15.5008 3.48754 15.4735 3.68039 15.4463 3.87305C15.4359 3.94629 15.4255 4.01954 15.415 4.09277C15.4003 4.19576 15.3856 4.29932 15.3711 4.40234C15.3628 4.46092 15.3543 4.51973 15.3457 4.58008C15.3306 4.7117 15.3244 4.83651 15.3281 4.96875C15.4377 4.87519 15.547 4.78144 15.6562 4.6875C15.691 4.65766 15.7259 4.62742 15.7617 4.59668C16.9625 3.67769 16.9627 3.67769 17.6611 2.43652C17.6674 2.04662 17.535 1.78405 17.3906 1.40625H15.7969C15.7134 1.99203 15.713 1.9923 15.6299 2.57812ZM5.76562 0.0761719C5.91506 0.0772137 6.06445 0.0796371 6.21387 0.0820312C6.31576 0.0829721 6.41764 0.0841947 6.51953 0.0849609C6.7682 0.086857 7.01696 0.090162 7.26562 0.09375V1.5H5.625L5.53125 1.875C5.37238 2.22387 5.12484 2.41937 4.78125 2.57812C4.5871 2.63526 4.39706 2.6312 4.19629 2.62988C4.13894 2.62978 4.13858 2.62901 4.08008 2.62891C3.95833 2.62864 3.83659 2.62853 3.71484 2.62793C3.63216 2.62769 3.54948 2.62714 3.4668 2.62695C3.26434 2.62644 3.06183 2.62596 2.85938 2.625V3.04688H1.40625C1.37687 2.06279 1.37688 2.06278 1.69629 1.5791C2.03894 1.25168 2.37263 1.164 2.83496 1.16699C2.87319 1.16706 2.91178 1.1679 2.95117 1.16797C3.07292 1.16823 3.19466 1.16835 3.31641 1.16895C3.39909 1.16918 3.48177 1.16973 3.56445 1.16992C3.76691 1.17044 3.96942 1.17091 4.17188 1.17188C4.18006 1.14069 4.18786 1.10928 4.19629 1.07715C4.26085 0.844859 4.31623 0.655855 4.48242 0.474609C4.51106 0.441859 4.53983 0.408743 4.56934 0.375C4.89506 0.11594 5.21541 0.0664644 5.62207 0.0751953C5.69297 0.0755933 5.6933 0.0757659 5.76562 0.0761719Z"/>
</mask>
<path d="M15.4961 19.1152C16.1963 19.1763 16.71 19.4192 17.2129 19.9004C17.6981 20.3298 18.3006 20.5516 18.9453 20.541C19.6535 20.4892 20.1897 20.1829 20.6963 19.7012C21.1851 19.2479 21.8001 19.1208 22.4531 19.125C23.0684 19.1542 23.5408 19.4345 24 19.8281V24H0V19.8281C0.981059 18.9697 2.33283 18.8641 3.35449 19.7441C3.4339 19.8171 3.51362 19.8906 3.59277 19.9639C4.04894 20.3716 4.65395 20.55 5.26074 20.541C5.91871 20.4908 6.43184 20.2044 6.90039 19.7568C7.42599 19.291 8.02856 19.125 8.71875 19.125C9.44913 19.1819 9.97149 19.5031 10.4971 20.001C10.9312 20.3891 11.5343 20.5583 12.1084 20.543C12.7623 20.4832 13.2308 20.2397 13.7031 19.7959C14.2129 19.3534 14.817 19.1021 15.4961 19.1152ZM22.9688 15.2812H21.7969V16.4531H19.7812V19.0312C19.0812 19.2938 18.4104 19.2756 17.7236 18.9707C17.4659 18.8249 17.2616 18.6344 17.0459 18.4336C16.5727 18.0305 16.0692 17.8857 15.4688 17.7656V16.4531H8.53125V17.7656L8.16504 17.8418C7.60578 17.9701 7.23379 18.2147 6.80957 18.5908C6.30545 19.0301 5.67987 19.2512 5.00879 19.2324C4.3511 19.163 4.35098 19.1635 4.21875 19.0312C4.21436 18.9507 4.21368 18.8697 4.21387 18.7891V18.4629C4.21393 18.4057 4.21478 18.348 4.21484 18.2891C4.21511 18.1058 4.21523 17.9225 4.21582 17.7393C4.21606 17.6153 4.2166 17.4912 4.2168 17.3672C4.21728 17.0625 4.21786 16.7578 4.21875 16.4531H2.20312V15.2812H1.03125V13.8281H22.9688V15.2812ZM1.3125 4.45312C3.02576 4.29187 3.02603 4.29188 3.47852 4.5332C3.71101 4.7539 3.83052 5.03558 3.95605 5.32617C4.07962 5.58613 4.24738 5.8156 4.41309 6.0498C4.50899 6.18626 4.60199 6.32466 4.69531 6.46289C4.73283 6.51822 4.77105 6.5736 4.80859 6.62891C4.88529 6.74197 4.96142 6.85567 5.03809 6.96875C5.13186 7.10705 5.22646 7.24555 5.32031 7.38379C5.37243 7.46059 5.4245 7.53742 5.47656 7.61426C5.50778 7.66022 5.53913 7.70655 5.57129 7.75391C5.59876 7.7944 5.626 7.83523 5.6543 7.87695C5.71164 7.96471 5.71187 7.9646 5.76562 8.01562L5.8125 5.8125H10.5V8.0625H11.8594V9.51562H10.5V12.4688H2.95312V9.51562H1.59375V8.0625H2.4375C2.41128 7.98208 2.38542 7.90122 2.3584 7.81836C2.10426 7.03609 1.85581 6.25214 1.61133 5.4668C1.59646 5.41912 1.58172 5.37138 1.56641 5.32227C1.5241 5.18652 1.48162 5.05083 1.43945 4.91504C1.4266 4.8738 1.41363 4.83252 1.40039 4.79004C1.31231 4.50566 1.3125 4.50541 1.3125 4.45312ZM18.6562 0C18.8747 1.48735 19.0871 2.97558 19.292 4.46484C19.314 4.62489 19.3363 4.78528 19.3584 4.94531C19.4357 5.50601 19.5128 6.06721 19.5898 6.62793C19.6613 7.14781 19.7329 7.66767 19.8047 8.1875C19.8669 8.63817 19.9293 9.08933 19.9912 9.54004C20.028 9.80751 20.0646 10.0753 20.1016 10.3428C20.1361 10.5925 20.1709 10.843 20.2051 11.0928C20.2176 11.1839 20.2305 11.2751 20.2432 11.3662C20.2605 11.491 20.277 11.6164 20.2939 11.7412C20.299 11.777 20.3044 11.8127 20.3096 11.8496C20.3164 11.9002 20.3163 11.9005 20.3232 11.9521C20.3272 11.9808 20.3309 12.0095 20.335 12.0391C20.3467 12.1818 20.3438 12.3255 20.3438 12.4688H12.8438C12.8438 12.047 12.8437 12.0469 12.8691 11.8623C12.8748 11.8202 12.8809 11.7778 12.8867 11.7344C12.8931 11.6894 12.8987 11.644 12.9053 11.5977C12.9119 11.549 12.9189 11.5003 12.9258 11.4502C12.9481 11.2872 12.9705 11.1239 12.9932 10.9609C13.0093 10.844 13.0259 10.7272 13.042 10.6104C13.0811 10.3259 13.1207 10.0412 13.1602 9.75684C13.2061 9.4256 13.2512 9.09397 13.2969 8.7627C13.3783 8.17164 13.4602 7.58026 13.542 6.98926C13.6214 6.41564 13.7012 5.84124 13.7803 5.26758C13.7851 5.23245 13.7899 5.19732 13.7949 5.16113C13.7998 5.12583 13.8046 5.09008 13.8096 5.05371L13.8535 4.73438C13.9289 4.18754 14.0045 3.64056 14.0801 3.09375C14.1074 2.89564 14.1348 2.69714 14.1621 2.49902C14.2095 2.15558 14.2571 1.81216 14.3047 1.46875C14.3205 1.35454 14.3358 1.24019 14.3516 1.12598C14.373 0.970468 14.3944 0.814666 14.416 0.65918C14.4222 0.613751 14.4291 0.56829 14.4355 0.521484C14.4413 0.479913 14.4471 0.438339 14.4531 0.395508C14.4606 0.34181 14.4602 0.3416 14.4678 0.287109C14.4837 0.190549 14.5075 0.09494 14.5312 0H18.6562ZM17.2549 9.36816C17.096 9.52676 16.9363 9.6853 16.7773 9.84375C16.6241 9.99644 16.4714 10.1498 16.3184 10.3027C16.2599 10.3611 16.2011 10.4192 16.1426 10.4775C16.0608 10.559 15.9791 10.641 15.8975 10.7227C15.8731 10.7469 15.8484 10.7709 15.8232 10.7959C15.7077 10.8895 15.7073 10.8899 15.6562 11.0156H18.7031L18.5449 9.78516C18.5286 9.6572 18.5119 9.5293 18.4951 9.39746C18.4819 9.29603 18.4693 9.19419 18.4561 9.09277C18.4495 9.04022 18.4423 8.98773 18.4355 8.93359C18.4289 8.88318 18.4229 8.83222 18.416 8.78027C18.4104 8.73674 18.4042 8.69328 18.3984 8.64844C18.3749 8.53276 18.3392 8.44598 18.2812 8.34375C17.9389 8.68501 17.5969 9.02662 17.2549 9.36816ZM16.6885 5.65137C16.5223 5.81554 16.3557 5.97957 16.1885 6.14258C16.0269 6.30004 15.8661 6.45815 15.7061 6.61719C15.645 6.67755 15.5842 6.73816 15.5225 6.79785C15.0613 7.23282 15.0609 7.2326 14.9062 7.82812C14.8948 7.9105 14.8829 7.99301 14.8701 8.0752C14.8586 8.16177 14.8472 8.24835 14.8359 8.33496C14.8298 8.38112 14.8237 8.42803 14.8174 8.47559C14.7982 8.62109 14.7788 8.76657 14.7598 8.91211C14.7467 9.0116 14.7338 9.11145 14.7207 9.21094C14.6888 9.45312 14.6566 9.69528 14.625 9.9375C15.1715 9.47245 15.7004 8.98817 16.2207 8.49414C16.4072 8.31738 16.5957 8.14294 16.7881 7.97266C17.6664 7.25606 17.6663 7.25571 18.1377 6.27637C18.1623 5.72205 18.0335 5.08289 17.7656 4.59375C17.4055 4.94513 17.0463 5.29765 16.6885 5.65137ZM15.6299 2.57812C15.596 2.817 15.5624 3.05608 15.5283 3.29492C15.5008 3.48754 15.4735 3.68039 15.4463 3.87305C15.4359 3.94629 15.4255 4.01954 15.415 4.09277C15.4003 4.19576 15.3856 4.29932 15.3711 4.40234C15.3628 4.46092 15.3543 4.51973 15.3457 4.58008C15.3306 4.7117 15.3244 4.83651 15.3281 4.96875C15.4377 4.87519 15.547 4.78144 15.6562 4.6875C15.691 4.65766 15.7259 4.62742 15.7617 4.59668C16.9625 3.67769 16.9627 3.67769 17.6611 2.43652C17.6674 2.04662 17.535 1.78405 17.3906 1.40625H15.7969C15.7134 1.99203 15.713 1.9923 15.6299 2.57812ZM5.76562 0.0761719C5.91506 0.0772137 6.06445 0.0796371 6.21387 0.0820312C6.31576 0.0829721 6.41764 0.0841947 6.51953 0.0849609C6.7682 0.086857 7.01696 0.090162 7.26562 0.09375V1.5H5.625L5.53125 1.875C5.37238 2.22387 5.12484 2.41937 4.78125 2.57812C4.5871 2.63526 4.39706 2.6312 4.19629 2.62988C4.13894 2.62978 4.13858 2.62901 4.08008 2.62891C3.95833 2.62864 3.83659 2.62853 3.71484 2.62793C3.63216 2.62769 3.54948 2.62714 3.4668 2.62695C3.26434 2.62644 3.06183 2.62596 2.85938 2.625V3.04688H1.40625C1.37687 2.06279 1.37688 2.06278 1.69629 1.5791C2.03894 1.25168 2.37263 1.164 2.83496 1.16699C2.87319 1.16706 2.91178 1.1679 2.95117 1.16797C3.07292 1.16823 3.19466 1.16835 3.31641 1.16895C3.39909 1.16918 3.48177 1.16973 3.56445 1.16992C3.76691 1.17044 3.96942 1.17091 4.17188 1.17188C4.18006 1.14069 4.18786 1.10928 4.19629 1.07715C4.26085 0.844859 4.31623 0.655855 4.48242 0.474609C4.51106 0.441859 4.53983 0.408743 4.56934 0.375C4.89506 0.11594 5.21541 0.0664644 5.62207 0.0751953C5.69297 0.0755933 5.6933 0.0757659 5.76562 0.0761719Z" fill="#00558D"/>
<path d="M15.4961 19.1152L15.5396 18.6171L15.5227 18.6157L15.5058 18.6153L15.4961 19.1152ZM17.2129 19.9004L16.8672 20.2617L16.8742 20.2684L16.8815 20.2748L17.2129 19.9004ZM18.9453 20.541L18.9535 21.0409L18.9677 21.0407L18.9818 21.0397L18.9453 20.541ZM20.6963 19.7012L20.3563 19.3345L20.3517 19.3389L20.6963 19.7012ZM22.4531 19.125L22.4768 18.6256L22.4666 18.6251L22.4563 18.625L22.4531 19.125ZM24 19.8281H24.5V19.5982L24.3254 19.4485L24 19.8281ZM24 24V24.5H24.5V24H24ZM0 24H-0.5V24.5H0V24ZM0 19.8281L-0.329252 19.4518L-0.5 19.6012V19.8281H0ZM3.35449 19.7441L3.69284 19.376L3.68691 19.3706L3.68081 19.3653L3.35449 19.7441ZM3.59277 19.9639L3.25311 20.3309L3.25958 20.3367L3.59277 19.9639ZM5.26074 20.541L5.26819 21.041L5.2835 21.0407L5.29877 21.0396L5.26074 20.541ZM6.90039 19.7568L6.56873 19.3827L6.56177 19.3888L6.55504 19.3953L6.90039 19.7568ZM8.71875 19.125L8.75756 18.6265L8.73819 18.625H8.71875V19.125ZM10.4971 20.001L10.1532 20.364L10.1584 20.3689L10.1638 20.3737L10.4971 20.001ZM12.1084 20.543L12.1217 21.0428L12.1378 21.0424L12.1539 21.0409L12.1084 20.543ZM13.7031 19.7959L13.3754 19.4183L13.3679 19.4248L13.3607 19.4315L13.7031 19.7959ZM22.9688 15.2812V15.7812H23.4688V15.2812H22.9688ZM21.7969 15.2812V14.7812H21.2969V15.2812H21.7969ZM21.7969 16.4531V16.9531H22.2969V16.4531H21.7969ZM19.7812 16.4531V15.9531H19.2812V16.4531H19.7812ZM19.7812 19.0312L19.9568 19.4994L20.2812 19.3778V19.0312H19.7812ZM17.7236 18.9707L17.4775 19.4059L17.4986 19.4179L17.5207 19.4277L17.7236 18.9707ZM17.0459 18.4336L17.3866 18.0676L17.3785 18.0601L17.3701 18.053L17.0459 18.4336ZM15.4688 17.7656H14.9688V18.1755L15.3707 18.2559L15.4688 17.7656ZM15.4688 16.4531H15.9688V15.9531H15.4688V16.4531ZM8.53125 16.4531V15.9531H8.03125V16.4531H8.53125ZM8.53125 17.7656L8.63307 18.2551L9.03125 18.1723V17.7656H8.53125ZM8.16504 17.8418L8.0632 17.3522L8.05322 17.3545L8.16504 17.8418ZM6.80957 18.5908L7.13807 18.9678L7.1413 18.9649L6.80957 18.5908ZM5.00879 19.2324L4.95634 19.7297L4.97552 19.7317L4.9948 19.7322L5.00879 19.2324ZM4.21875 19.0312L3.71949 19.0584L3.72989 19.2495L3.8652 19.3848L4.21875 19.0312ZM4.21387 18.7891L4.71387 18.7902V18.7891H4.21387ZM4.21387 18.4629L3.71387 18.4623V18.4629H4.21387ZM4.21484 18.2891L3.71484 18.2883L3.71484 18.2885L4.21484 18.2891ZM4.21582 17.7393L4.71582 17.7409L4.71582 17.7402L4.21582 17.7393ZM4.2168 17.3672L3.7168 17.3664L3.7168 17.3664L4.2168 17.3672ZM4.21875 16.4531L4.71875 16.4546L4.72022 15.9531H4.21875V16.4531ZM2.20312 16.4531H1.70312V16.9531H2.20312V16.4531ZM2.20312 15.2812H2.70312V14.7812H2.20312V15.2812ZM1.03125 15.2812H0.53125V15.7812H1.03125V15.2812ZM1.03125 13.8281V13.3281H0.53125V13.8281H1.03125ZM22.9688 13.8281H23.4688V13.3281H22.9688V13.8281ZM1.3125 4.45312L1.26565 3.95533L0.8125 3.99798V4.45312H1.3125ZM3.47852 4.5332L3.82275 4.17057L3.7736 4.12391L3.7138 4.09202L3.47852 4.5332ZM3.95605 5.32617L3.49705 5.52446L3.50062 5.53271L3.50448 5.54083L3.95605 5.32617ZM4.41309 6.0498L4.82216 5.76229L4.82126 5.76102L4.41309 6.0498ZM4.69531 6.46289L4.28091 6.74266L4.28148 6.7435L4.69531 6.46289ZM4.80859 6.62891L5.22237 6.34821L5.22229 6.3481L4.80859 6.62891ZM5.03809 6.96875L4.62424 7.24934L4.62425 7.24935L5.03809 6.96875ZM5.32031 7.38379L5.73403 7.10301L5.73398 7.10293L5.32031 7.38379ZM5.47656 7.61426L5.06265 7.89475L5.06294 7.89517L5.47656 7.61426ZM5.57129 7.75391L5.98507 7.47322L5.98491 7.47299L5.57129 7.75391ZM5.6543 7.87695L6.07292 7.6034L6.06808 7.59626L5.6543 7.87695ZM5.76562 8.01562L5.42139 8.37825L6.24146 9.15674L6.26551 8.02626L5.76562 8.01562ZM5.8125 5.8125V5.3125H5.32303L5.31261 5.80186L5.8125 5.8125ZM10.5 5.8125H11V5.3125H10.5V5.8125ZM10.5 8.0625H10V8.5625H10.5V8.0625ZM11.8594 8.0625H12.3594V7.5625H11.8594V8.0625ZM11.8594 9.51562V10.0156H12.3594V9.51562H11.8594ZM10.5 9.51562V9.01562H10V9.51562H10.5ZM10.5 12.4688V12.9688H11V12.4688H10.5ZM2.95312 12.4688H2.45312V12.9688H2.95312V12.4688ZM2.95312 9.51562H3.45312V9.01562H2.95312V9.51562ZM1.59375 9.51562H1.09375V10.0156H1.59375V9.51562ZM1.59375 8.0625V7.5625H1.09375V8.0625H1.59375ZM2.4375 8.0625V8.5625H3.12644L2.91287 7.9075L2.4375 8.0625ZM2.3584 7.81836L1.88286 7.97285L1.88303 7.97336L2.3584 7.81836ZM1.61133 5.4668L2.08873 5.31818L2.08866 5.31796L1.61133 5.4668ZM1.56641 5.32227L1.08905 5.47103L1.08907 5.4711L1.56641 5.32227ZM1.43945 4.91504L1.91696 4.76676L1.91681 4.76627L1.43945 4.91504ZM1.40039 4.79004L0.922774 4.93797L0.923035 4.93881L1.40039 4.79004ZM18.6562 0L19.1509 -0.0726641L19.0882 -0.5H18.6562V0ZM19.292 4.46484L18.7967 4.533L18.7967 4.53302L19.292 4.46484ZM19.3584 4.94531L19.8537 4.87705L19.8537 4.87704L19.3584 4.94531ZM19.5898 6.62793L19.0945 6.69603L19.0945 6.69603L19.5898 6.62793ZM19.8047 8.1875L20.3 8.11909L20.3 8.11907L19.8047 8.1875ZM19.9912 9.54004L19.4959 9.60812L19.4959 9.60813L19.9912 9.54004ZM20.1016 10.3428L20.5968 10.2742L20.5968 10.2742L20.1016 10.3428ZM20.2051 11.0928L19.7097 11.1606L19.7097 11.1608L20.2051 11.0928ZM20.2432 11.3662L20.7384 11.2974L20.7384 11.2974L20.2432 11.3662ZM20.2939 11.7412L19.7985 11.8086L19.7988 11.8109L20.2939 11.7412ZM20.3096 11.8496L20.8051 11.783L20.8047 11.7799L20.3096 11.8496ZM20.3232 11.9521L19.8277 12.0188L19.8279 12.0203L20.3232 11.9521ZM20.335 12.0391L20.8333 11.9982L20.8322 11.9845L20.8303 11.9709L20.335 12.0391ZM20.3438 12.4688V12.9688H20.8438V12.4688H20.3438ZM12.8438 12.4688H12.3438V12.9688H12.8438V12.4688ZM12.8691 11.8623L13.3644 11.9307L13.3646 11.9292L12.8691 11.8623ZM12.8867 11.7344L12.3916 11.6647L12.3912 11.6675L12.8867 11.7344ZM12.9053 11.5977L13.4004 11.6674L13.4007 11.6653L12.9053 11.5977ZM12.9258 11.4502L12.4304 11.3823L12.4304 11.3825L12.9258 11.4502ZM12.9932 10.9609L13.4884 11.0299L13.4885 11.0291L12.9932 10.9609ZM13.042 10.6104L12.5467 10.5423L12.5466 10.5424L13.042 10.6104ZM13.1602 9.75684L13.6554 9.82553L13.6554 9.82551L13.1602 9.75684ZM13.2969 8.7627L12.8016 8.69443L12.8016 8.69444L13.2969 8.7627ZM13.542 6.98926L14.0373 7.05784L14.0373 7.05784L13.542 6.98926ZM13.7803 5.26758L13.285 5.1993L13.285 5.1993L13.7803 5.26758ZM13.7949 5.16113L14.2902 5.22941L14.2902 5.22941L13.7949 5.16113ZM13.8096 5.05371L14.3049 5.12199L14.3049 5.12188L13.8096 5.05371ZM13.8535 4.73438L13.3582 4.66609L13.3582 4.66621L13.8535 4.73438ZM14.0801 3.09375L14.5754 3.16218L14.5754 3.16218L14.0801 3.09375ZM14.1621 2.49902L13.6668 2.43069L13.6668 2.43069L14.1621 2.49902ZM14.3047 1.46875L14.8 1.5374L14.8 1.53733L14.3047 1.46875ZM14.3516 1.12598L13.8562 1.05769L13.8562 1.05771L14.3516 1.12598ZM14.416 0.65918L14.9113 0.727978L14.9114 0.727154L14.416 0.65918ZM14.4355 0.521484L13.9403 0.45237L13.9402 0.45351L14.4355 0.521484ZM14.4531 0.395508L14.9483 0.464622L14.9484 0.464032L14.4531 0.395508ZM14.4678 0.287109L13.9743 0.20581L13.9725 0.218586L14.4678 0.287109ZM14.5312 0V-0.5H14.1409L14.0462 -0.121268L14.5312 0ZM17.2549 9.36816L17.6082 9.72199L17.6082 9.72198L17.2549 9.36816ZM16.7773 9.84375L16.4244 9.48961L16.4244 9.48961L16.7773 9.84375ZM16.3184 10.3027L16.6716 10.6566L16.6718 10.6564L16.3184 10.3027ZM16.1426 10.4775L15.7898 10.1232L15.7898 10.1233L16.1426 10.4775ZM15.8975 10.7227L16.2498 11.0774L16.2511 11.0762L15.8975 10.7227ZM15.8232 10.7959L16.1378 11.1845L16.1576 11.1686L16.1756 11.1507L15.8232 10.7959ZM15.6562 11.0156L15.1929 10.8276L14.9138 11.5156H15.6562V11.0156ZM18.7031 11.0156V11.5156H19.2715L19.199 10.9519L18.7031 11.0156ZM18.5449 9.78516L18.0489 9.84823L18.049 9.84892L18.5449 9.78516ZM18.4951 9.39746L18.9911 9.33438L18.9909 9.33296L18.4951 9.39746ZM18.4561 9.09277L17.9599 9.15498L17.9603 9.15755L18.4561 9.09277ZM18.4355 8.93359L18.9317 8.87139L18.9313 8.86821L18.4355 8.93359ZM18.416 8.78027L17.9201 8.84403L17.9203 8.84566L18.416 8.78027ZM18.3984 8.64844L18.8944 8.58468L18.892 8.5667L18.8884 8.54894L18.3984 8.64844ZM18.2812 8.34375L18.7162 8.0971L18.3927 7.52667L17.9283 7.98964L18.2812 8.34375ZM16.6885 5.65137L17.0399 6.007L17.04 6.00694L16.6885 5.65137ZM16.1885 6.14258L15.8395 5.7845L15.8395 5.78453L16.1885 6.14258ZM15.7061 6.61719L16.0576 6.97275L16.0585 6.97181L15.7061 6.61719ZM15.5225 6.79785L15.8655 7.16163L15.8701 7.15727L15.5225 6.79785ZM14.9062 7.82812L14.4223 7.70245L14.415 7.73045L14.411 7.7591L14.9062 7.82812ZM14.8701 8.0752L14.376 7.99823L14.3745 8.00914L14.8701 8.0752ZM14.8359 8.33496L15.3316 8.40058L15.3318 8.39925L14.8359 8.33496ZM14.8174 8.47559L14.3217 8.40997L14.3217 8.41008L14.8174 8.47559ZM14.7598 8.91211L15.2555 8.97742L15.2556 8.97685L14.7598 8.91211ZM14.7207 9.21094L14.225 9.14548L14.225 9.14554L14.7207 9.21094ZM14.625 9.9375L14.1292 9.87272L13.9612 11.159L14.9491 10.3183L14.625 9.9375ZM16.2207 8.49414L15.8767 8.13126L15.8764 8.13154L16.2207 8.49414ZM16.7881 7.97266L16.472 7.58523L16.4642 7.59157L16.4567 7.59822L16.7881 7.97266ZM18.1377 6.27637L18.5882 6.49321L18.6327 6.40088L18.6372 6.29851L18.1377 6.27637ZM17.7656 4.59375L18.2042 4.3536L17.8878 3.7759L17.4164 4.2359L17.7656 4.59375ZM15.6299 2.57812L15.1348 2.50785L15.1348 2.50799L15.6299 2.57812ZM15.5283 3.29492L15.0333 3.22428L15.0333 3.22428L15.5283 3.29492ZM15.4463 3.87305L15.9413 3.94318L15.9414 3.943L15.4463 3.87305ZM15.415 4.09277L14.9201 4.02186L14.9201 4.02191L15.415 4.09277ZM15.3711 4.40234L15.8661 4.47269L15.8662 4.47201L15.3711 4.40234ZM15.3457 4.58008L14.8505 4.50971L14.849 4.52292L15.3457 4.58008ZM15.3281 4.96875L14.8283 4.98269L14.8575 6.02827L15.6529 5.34895L15.3281 4.96875ZM15.6562 4.6875L15.3304 4.30826L15.3302 4.30843L15.6562 4.6875ZM15.7617 4.59668L15.4578 4.19961L15.4466 4.20822L15.4359 4.21744L15.7617 4.59668ZM17.6611 2.43652L18.0969 2.68172L18.159 2.57126L18.1611 2.44452L17.6611 2.43652ZM17.3906 1.40625L17.8577 1.22774L17.7348 0.90625H17.3906V1.40625ZM15.7969 1.40625V0.90625H15.3631L15.3019 1.33572L15.7969 1.40625ZM5.76562 0.0761719L5.76911 -0.423816L5.76843 -0.42382L5.76562 0.0761719ZM6.21387 0.0820312L6.20586 0.581979L6.20925 0.58201L6.21387 0.0820312ZM6.51953 0.0849609L6.52334 -0.415025L6.52329 -0.415025L6.51953 0.0849609ZM7.26562 0.09375H7.76562V-0.399088L7.27284 -0.406198L7.26562 0.09375ZM7.26562 1.5V2H7.76562V1.5H7.26562ZM5.625 1.5V1H5.23461L5.13993 1.37873L5.625 1.5ZM5.53125 1.875L5.98629 2.08222L6.00523 2.04062L6.01632 1.99627L5.53125 1.875ZM4.78125 2.57812L4.9224 3.05779L4.95763 3.04742L4.99097 3.03202L4.78125 2.57812ZM4.19629 2.62988L4.19957 2.12989L4.19716 2.12988L4.19629 2.62988ZM4.08008 2.62891L4.079 3.12891L4.07921 3.12891L4.08008 2.62891ZM3.71484 2.62793L3.71729 2.12793L3.71627 2.12793L3.71484 2.62793ZM3.4668 2.62695L3.46552 3.12695L3.46564 3.12695L3.4668 2.62695ZM2.85938 2.625L2.86176 2.12501L2.35938 2.12261V2.625H2.85938ZM2.85938 3.04688V3.54688H3.35938V3.04688H2.85938ZM1.40625 3.04688L0.906473 3.06179L0.920953 3.54688H1.40625V3.04688ZM1.69629 1.5791L1.35086 1.21761L1.31011 1.25654L1.27906 1.30357L1.69629 1.5791ZM2.83496 1.16699L2.83172 1.66699L2.83409 1.66699L2.83496 1.16699ZM2.95117 1.16797L2.95225 0.66797L2.95204 0.66797L2.95117 1.16797ZM3.31641 1.16895L3.31396 1.66894L3.31498 1.66894L3.31641 1.16895ZM3.56445 1.16992L3.56573 0.669923L3.56561 0.669923L3.56445 1.16992ZM4.17188 1.17188L4.16949 1.67187L4.55716 1.67372L4.65552 1.29873L4.17188 1.17188ZM4.19629 1.07715L3.7145 0.943243L3.71265 0.950294L4.19629 1.07715ZM4.48242 0.474609L4.85105 0.812625L4.8588 0.803763L4.48242 0.474609ZM4.56934 0.375L4.2581 -0.0163214L4.22272 0.0118177L4.19296 0.045846L4.56934 0.375ZM5.62207 0.0751953L5.61134 0.575143L5.61926 0.575187L5.62207 0.0751953ZM15.4961 19.1152L15.4526 19.6133C16.0348 19.6641 16.4431 19.8558 16.8672 20.2617L17.2129 19.9004L17.5585 19.5391C16.9769 18.9826 16.3578 18.6885 15.5396 18.6171L15.4961 19.1152ZM17.2129 19.9004L16.8815 20.2748C17.4604 20.7871 18.1841 21.0535 18.9535 21.0409L18.9453 20.541L18.9371 20.0411C18.4171 20.0496 17.9358 19.8725 17.5443 19.526L17.2129 19.9004ZM18.9453 20.541L18.9818 21.0397C19.8369 20.9771 20.4767 20.6 21.0409 20.0635L20.6963 19.7012L20.3517 19.3389C19.9028 19.7658 19.4702 20.0013 18.9088 20.0423L18.9453 20.541ZM20.6963 19.7012L21.0363 20.0678C21.393 19.7369 21.8589 19.6212 22.4499 19.625L22.4531 19.125L22.4563 18.625C21.7413 18.6204 20.9772 18.7588 20.3563 19.3346L20.6963 19.7012ZM22.4531 19.125L22.4294 19.6244C22.8865 19.6461 23.2552 19.8483 23.6746 20.2078L24 19.8281L24.3254 19.4485C23.8263 19.0207 23.2503 18.6623 22.4768 18.6256L22.4531 19.125ZM24 19.8281H23.5V24H24H24.5V19.8281H24ZM24 24V23.5H0V24V24.5H24V24ZM0 24H0.5V19.8281H0H-0.5V24H0ZM0 19.8281L0.329252 20.2044C1.14757 19.4884 2.21899 19.426 3.02818 20.123L3.35449 19.7441L3.68081 19.3653C2.44666 18.3023 0.814544 18.451 -0.329252 19.4518L0 19.8281ZM3.35449 19.7441L3.01615 20.1123C3.09519 20.1849 3.17448 20.258 3.25316 20.3308L3.59277 19.9639L3.93239 19.5969C3.85275 19.5232 3.77261 19.4493 3.69284 19.376L3.35449 19.7441ZM3.59277 19.9639L3.25958 20.3367C3.82777 20.8445 4.56308 21.0515 5.26819 21.041L5.26074 20.541L5.2533 20.0411C4.74482 20.0486 4.27011 19.8986 3.92596 19.5911L3.59277 19.9639ZM5.26074 20.541L5.29877 21.0396C6.09996 20.9785 6.71653 20.6239 7.24574 20.1184L6.90039 19.7568L6.55504 19.3953C6.14715 19.7849 5.73747 20.0032 5.22272 20.0425L5.26074 20.541ZM6.90039 19.7568L7.23205 20.131C7.64394 19.7659 8.11736 19.625 8.71875 19.625V19.125V18.625C7.93976 18.625 7.20803 18.816 6.56873 19.3827L6.90039 19.7568ZM8.71875 19.125L8.67994 19.6235C9.25639 19.6684 9.67632 19.9122 10.1532 20.364L10.4971 20.001L10.8409 19.638C10.2666 19.0939 9.64187 18.6954 8.75756 18.6265L8.71875 19.125ZM10.4971 20.001L10.1638 20.3737C10.7137 20.8653 11.4507 21.0607 12.1217 21.0428L12.1084 20.543L12.0951 20.0431C11.6178 20.0559 11.1487 19.9129 10.8303 19.6282L10.4971 20.001ZM12.1084 20.543L12.1539 21.0409C12.9357 20.9694 13.5052 20.668 14.0455 20.1603L13.7031 19.7959L13.3607 19.4315C12.9565 19.8114 12.5888 19.997 12.0629 20.045L12.1084 20.543ZM13.7031 19.7959L14.0309 20.1735C14.46 19.801 14.947 19.6047 15.4864 19.6151L15.4961 19.1152L15.5058 18.6153C14.687 18.5995 13.9658 18.9058 13.3754 19.4183L13.7031 19.7959ZM22.9688 15.2812V14.7812H21.7969V15.2812V15.7812H22.9688V15.2812ZM21.7969 15.2812H21.2969V16.4531H21.7969H22.2969V15.2812H21.7969ZM21.7969 16.4531V15.9531H19.7812V16.4531V16.9531H21.7969V16.4531ZM19.7812 16.4531H19.2812V19.0312H19.7812H20.2812V16.4531H19.7812ZM19.7812 19.0312L19.6057 18.5631C19.0279 18.7798 18.493 18.7652 17.9265 18.5137L17.7236 18.9707L17.5207 19.4277C18.3278 19.786 19.1345 19.8078 19.9568 19.4994L19.7812 19.0312ZM17.7236 18.9707L17.9698 18.5355C17.7715 18.4234 17.6089 18.2745 17.3866 18.0676L17.0459 18.4336L16.7052 18.7996C16.9144 18.9943 17.1602 19.2265 17.4775 19.4059L17.7236 18.9707ZM17.0459 18.4336L17.3701 18.053C16.797 17.5648 16.1893 17.3998 15.5668 17.2753L15.4688 17.7656L15.3707 18.2559C15.9491 18.3716 16.3484 18.4963 16.7217 18.8142L17.0459 18.4336ZM15.4688 17.7656H15.9688V16.4531H15.4688H14.9688V17.7656H15.4688ZM15.4688 16.4531V15.9531H8.53125V16.4531V16.9531H15.4688V16.4531ZM8.53125 16.4531H8.03125V17.7656H8.53125H9.03125V16.4531H8.53125ZM8.53125 17.7656L8.42943 17.2761L8.06322 17.3523L8.16504 17.8418L8.26686 18.3313L8.63307 18.2551L8.53125 17.7656ZM8.16504 17.8418L8.05322 17.3545C7.38402 17.508 6.93864 17.8081 6.47785 18.2167L6.80957 18.5908L7.1413 18.9649C7.52894 18.6212 7.82755 18.4322 8.27686 18.3291L8.16504 17.8418ZM6.80957 18.5908L6.48108 18.2139C6.07315 18.5693 5.57033 18.7479 5.02278 18.7326L5.00879 19.2324L4.9948 19.7322C5.7894 19.7545 6.53776 19.4909 7.13806 18.9678L6.80957 18.5908ZM5.00879 19.2324L5.06124 18.7352C4.89469 18.7176 4.77703 18.7052 4.68829 18.6942C4.59655 18.6827 4.557 18.6752 4.53984 18.6708C4.53186 18.6688 4.55606 18.6744 4.58663 18.6952C4.60421 18.7072 4.61352 18.7189 4.5723 18.6777L4.21875 19.0312L3.8652 19.3848C3.89009 19.4097 3.949 19.471 4.02435 19.5222C4.11269 19.5822 4.20281 19.6169 4.2936 19.64C4.43728 19.6765 4.65184 19.6975 4.95634 19.7297L5.00879 19.2324ZM4.21875 19.0312L4.71801 19.0041C4.71441 18.9379 4.71369 18.8683 4.71387 18.7902L4.21387 18.7891L3.71387 18.7879C3.71368 18.8712 3.71432 18.9635 3.71949 19.0584L4.21875 19.0312ZM4.21387 18.7891H4.71387V18.4629H4.21387H3.71387V18.7891H4.21387ZM4.21387 18.4629L4.71387 18.4635C4.7139 18.4369 4.71411 18.4098 4.71434 18.3806C4.71456 18.3518 4.71481 18.321 4.71484 18.2896L4.21484 18.2891L3.71484 18.2885C3.71481 18.316 3.7146 18.3435 3.71437 18.3727C3.71415 18.4013 3.7139 18.4318 3.71387 18.4623L4.21387 18.4629ZM4.21484 18.2891L4.71484 18.2898C4.71511 18.106 4.71523 17.9235 4.71582 17.7409L4.21582 17.7393L3.71582 17.7376C3.71523 17.9215 3.71511 18.1056 3.71484 18.2883L4.21484 18.2891ZM4.21582 17.7393L4.71582 17.7402C4.71605 17.6206 4.71661 17.4894 4.7168 17.368L4.2168 17.3672L3.7168 17.3664C3.7166 17.493 3.71606 17.6099 3.71582 17.7383L4.21582 17.7393ZM4.2168 17.3672L4.7168 17.368C4.71727 17.0634 4.71786 16.759 4.71875 16.4546L4.21875 16.4531L3.71875 16.4517C3.71786 16.7567 3.71728 17.0616 3.7168 17.3664L4.2168 17.3672ZM4.21875 16.4531V15.9531H2.20312V16.4531V16.9531H4.21875V16.4531ZM2.20312 16.4531H2.70312V15.2812H2.20312H1.70312V16.4531H2.20312ZM2.20312 15.2812V14.7812H1.03125V15.2812V15.7812H2.20312V15.2812ZM1.03125 15.2812H1.53125V13.8281H1.03125H0.53125V15.2812H1.03125ZM1.03125 13.8281V14.3281H22.9688V13.8281V13.3281H1.03125V13.8281ZM22.9688 13.8281H22.4688V15.2812H22.9688H23.4688V13.8281H22.9688ZM1.3125 4.45312L1.35935 4.95092C2.23746 4.86828 2.62106 4.8334 2.84982 4.84186C2.94691 4.84545 2.99212 4.85674 3.02601 4.86851C3.07255 4.88468 3.12152 4.90947 3.24323 4.97438L3.47852 4.5332L3.7138 4.09202C3.60927 4.03627 3.48852 3.97057 3.3542 3.9239C3.20724 3.87284 3.06047 3.84896 2.88677 3.84254C2.57396 3.83097 2.1008 3.87672 1.26565 3.95533L1.3125 4.45312ZM3.47852 4.5332L3.13428 4.89584C3.27998 5.03415 3.36376 5.2159 3.49705 5.52446L3.95605 5.32617L4.41506 5.12789C4.29728 4.85525 4.14204 4.47366 3.82275 4.17057L3.47852 4.5332ZM3.95605 5.32617L3.50448 5.54083C3.65062 5.84827 3.84788 6.11663 4.00491 6.33858L4.41309 6.0498L4.82126 5.76102C4.64689 5.51456 4.50863 5.32399 4.40763 5.11152L3.95605 5.32617ZM4.41309 6.0498L4.00402 6.33732C4.09659 6.46902 4.18652 6.60285 4.28091 6.74266L4.69531 6.46289L5.10972 6.18312C5.01747 6.04648 4.9214 5.9035 4.82215 5.76229L4.41309 6.0498ZM4.69531 6.46289L4.28148 6.7435C4.30806 6.78269 4.37131 6.87497 4.3949 6.90972L4.80859 6.62891L5.22229 6.3481C5.17079 6.27223 5.1576 6.25374 5.10915 6.18228L4.69531 6.46289ZM4.80859 6.62891L4.39482 6.9096C4.48343 7.04023 4.53342 7.11539 4.62424 7.24934L5.03809 6.96875L5.45193 6.68816C5.38941 6.59595 5.28715 6.4437 5.22237 6.34821L4.80859 6.62891ZM5.03809 6.96875L4.62425 7.24935C4.71722 7.38648 4.81474 7.52928 4.90665 7.66465L5.32031 7.38379L5.73398 7.10293C5.63817 6.96182 5.54649 6.82762 5.45193 6.68815L5.03809 6.96875ZM5.32031 7.38379L4.9066 7.66457C4.9586 7.74119 5.01055 7.81786 5.06265 7.89475L5.47656 7.61426L5.89048 7.33377C5.83845 7.25699 5.78627 7.17998 5.73403 7.10301L5.32031 7.38379ZM5.47656 7.61426L5.06294 7.89517C5.0784 7.91795 5.09392 7.94084 5.1097 7.96412C5.12545 7.98734 5.14144 8.01094 5.15766 8.03482L5.57129 7.75391L5.98491 7.47299C5.96897 7.44952 5.95321 7.42627 5.93744 7.403C5.9217 7.37978 5.90594 7.35653 5.89019 7.33334L5.47656 7.61426ZM5.57129 7.75391L5.15751 8.0346C5.17061 8.0539 5.18374 8.07342 5.19762 8.09406C5.21132 8.11443 5.22574 8.13586 5.24052 8.15764L5.6543 7.87695L6.06808 7.59626C6.05455 7.57633 6.0412 7.55648 6.02734 7.53588C6.01366 7.51555 5.99944 7.4944 5.98507 7.47322L5.57129 7.75391ZM5.6543 7.87695L5.23574 8.15046C5.25846 8.18524 5.2886 8.23233 5.32185 8.27362C5.36102 8.32227 5.40143 8.35931 5.42139 8.37825L5.76562 8.01562L6.10986 7.653C6.10269 7.64618 6.09803 7.64176 6.09402 7.63791C6.09015 7.6342 6.08869 7.63274 6.08841 7.63246C6.08834 7.6324 6.08999 7.63405 6.09257 7.6369C6.0953 7.63992 6.09811 7.6432 6.10077 7.6465C6.10571 7.65263 6.10709 7.65512 6.1018 7.64734C6.09599 7.63878 6.08795 7.62655 6.07286 7.60344L5.6543 7.87695ZM5.76562 8.01562L6.26551 8.02626L6.31239 5.82314L5.8125 5.8125L5.31261 5.80186L5.26574 8.00499L5.76562 8.01562ZM5.8125 5.8125V6.3125H10.5V5.8125V5.3125H5.8125V5.8125ZM10.5 5.8125H10V8.0625H10.5H11V5.8125H10.5ZM10.5 8.0625V8.5625H11.8594V8.0625V7.5625H10.5V8.0625ZM11.8594 8.0625H11.3594V9.51562H11.8594H12.3594V8.0625H11.8594ZM11.8594 9.51562V9.01562H10.5V9.51562V10.0156H11.8594V9.51562ZM10.5 9.51562H10V12.4688H10.5H11V9.51562H10.5ZM10.5 12.4688V11.9688H2.95312V12.4688V12.9688H10.5V12.4688ZM2.95312 12.4688H3.45312V9.51562H2.95312H2.45312V12.4688H2.95312ZM2.95312 9.51562V9.01562H1.59375V9.51562V10.0156H2.95312V9.51562ZM1.59375 9.51562H2.09375V8.0625H1.59375H1.09375V9.51562H1.59375ZM1.59375 8.0625V8.5625H2.4375V8.0625V7.5625H1.59375V8.0625ZM2.4375 8.0625L2.91287 7.9075C2.90001 7.86807 2.88721 7.82843 2.87405 7.78768C2.86096 7.74715 2.84753 7.70556 2.83377 7.66336L2.3584 7.81836L1.88303 7.97336C1.89629 8.01402 1.9093 8.05429 1.92245 8.09501C1.93553 8.13551 1.94877 8.17651 1.96213 8.2175L2.4375 8.0625ZM2.3584 7.81836L2.83393 7.66387C2.58053 6.88387 2.33272 6.10191 2.08873 5.31818L1.61133 5.4668L1.13393 5.61542C1.37891 6.40237 1.62798 7.1883 1.88286 7.97285L2.3584 7.81836ZM1.61133 5.4668L2.08866 5.31796C2.08135 5.29451 2.07405 5.27098 2.06657 5.24689C2.05913 5.2229 2.05152 5.19837 2.04374 5.17343L1.56641 5.32227L1.08907 5.4711C1.09661 5.49528 1.10403 5.51918 1.1115 5.54326C1.11894 5.56723 1.12644 5.59141 1.13399 5.61563L1.61133 5.4668ZM1.56641 5.32227L2.04376 5.1735C2.00117 5.03682 1.95906 4.90232 1.91696 4.76676L1.43945 4.91504L0.961946 5.06332C1.00418 5.19933 1.04703 5.33621 1.08905 5.47103L1.56641 5.32227ZM1.43945 4.91504L1.91681 4.76627C1.91028 4.74533 1.90374 4.72442 1.89725 4.70368C1.89073 4.68286 1.88427 4.66219 1.87775 4.64127L1.40039 4.79004L0.923035 4.93881C0.929756 4.96037 0.936394 4.98158 0.942886 5.00233C0.949406 5.02317 0.955773 5.04351 0.962098 5.06381L1.43945 4.91504ZM1.40039 4.79004L1.87801 4.64211C1.85583 4.57051 1.83985 4.51884 1.82803 4.47982C1.81586 4.43966 1.81011 4.41945 1.80731 4.40868C1.80472 4.3987 1.80819 4.40997 1.81058 4.43074C1.81298 4.45165 1.8125 4.46964 1.8125 4.45312H1.3125H0.8125C0.8125 4.46275 0.811997 4.50038 0.817117 4.54493C0.822222 4.58934 0.831152 4.62826 0.839518 4.66042C0.85419 4.71682 0.880972 4.803 0.922775 4.93797L1.40039 4.79004ZM18.6562 0L18.1616 0.0726641C18.3798 1.55866 18.592 3.04538 18.7967 4.533L19.292 4.46484L19.7873 4.39669C19.5822 2.90578 19.3696 1.41604 19.1509 -0.0726641L18.6562 0ZM19.292 4.46484L18.7967 4.53302C18.8185 4.69188 18.8413 4.85566 18.8631 5.01358L19.3584 4.94531L19.8537 4.87704C19.8314 4.71489 19.8095 4.55789 19.7873 4.39667L19.292 4.46484ZM19.3584 4.94531L18.8631 5.01358C18.9403 5.57417 19.0174 6.13522 19.0945 6.69603L19.5898 6.62793L20.0852 6.55983C20.0081 5.9992 19.931 5.43785 19.8537 4.87705L19.3584 4.94531ZM19.5898 6.62793L19.0945 6.69603C19.166 7.21595 19.2376 7.73594 19.3094 8.25593L19.8047 8.1875L20.3 8.11907C20.2282 7.5994 20.1567 7.07966 20.0852 6.55983L19.5898 6.62793ZM19.8047 8.1875L19.3094 8.25591C19.3716 8.70662 19.4339 9.15761 19.4959 9.60812L19.9912 9.54004L20.4866 9.47196C20.4246 9.02105 20.3622 8.56972 20.3 8.11909L19.8047 8.1875ZM19.9912 9.54004L19.4959 9.60813C19.5325 9.87498 19.5692 10.1436 19.6063 10.4113L20.1016 10.3428L20.5968 10.2742C20.5599 10.0071 20.5234 9.74003 20.4866 9.47195L19.9912 9.54004ZM20.1016 10.3428L19.6063 10.4113C19.6409 10.6614 19.6756 10.9113 19.7097 11.1606L20.2051 11.0928L20.7005 11.025C20.6662 10.7747 20.6314 10.5237 20.5968 10.2742L20.1016 10.3428ZM20.2051 11.0928L19.7097 11.1608C19.7223 11.2522 19.7355 11.3459 19.7479 11.435L20.2432 11.3662L20.7384 11.2974C20.7255 11.2042 20.7129 11.1157 20.7004 11.0248L20.2051 11.0928ZM20.2432 11.3662L19.7479 11.435C19.7652 11.5595 19.781 11.68 19.7985 11.8086L20.2939 11.7412L20.7894 11.6738C20.7729 11.5528 20.7558 11.4224 20.7384 11.2974L20.2432 11.3662ZM20.2939 11.7412L19.7988 11.8109C19.8015 11.8302 19.8043 11.8494 19.8069 11.8672C19.8096 11.8854 19.8121 11.9023 19.8144 11.9193L20.3096 11.8496L20.8047 11.7799C20.8019 11.7601 20.7991 11.7407 20.7965 11.7228C20.7938 11.7046 20.7914 11.688 20.7891 11.6715L20.2939 11.7412ZM20.3096 11.8496L19.814 11.9162C19.8174 11.941 19.819 11.9534 19.8207 11.966C19.8224 11.9791 19.8242 11.9925 19.8277 12.0188L20.3232 11.9521L20.8188 11.8855C20.8154 11.8602 20.8137 11.8476 20.812 11.8349C20.8103 11.8219 20.8086 11.8088 20.8051 11.783L20.3096 11.8496ZM20.3232 11.9521L19.8279 12.0203C19.8297 12.0335 19.8315 12.0467 19.8334 12.0614C19.8354 12.0757 19.8374 12.0913 19.8396 12.1073L20.335 12.0391L20.8303 11.9709C20.8284 11.9573 20.8266 11.9438 20.8247 11.9292C20.8228 11.9149 20.8207 11.8995 20.8186 11.884L20.3232 11.9521ZM20.335 12.0391L19.8366 12.08C19.8462 12.1964 19.8438 12.3109 19.8438 12.4688H20.3438H20.8438C20.8438 12.34 20.8472 12.1673 20.8333 11.9982L20.335 12.0391ZM20.3438 12.4688V11.9688H12.8438V12.4688V12.9688H20.3438V12.4688ZM12.8438 12.4688H13.3438C13.3438 12.2517 13.3438 12.16 13.3465 12.0974C13.3485 12.048 13.3517 12.0231 13.3644 11.9307L12.8691 11.8623L12.3738 11.7939C12.3611 11.8861 12.3516 11.9535 12.3473 12.0557C12.3436 12.1448 12.3438 12.264 12.3438 12.4688H12.8438ZM12.8691 11.8623L13.3646 11.9292C13.3673 11.9092 13.3702 11.8889 13.3731 11.8675C13.3761 11.8463 13.3792 11.824 13.3822 11.8013L12.8867 11.7344L12.3912 11.6675C12.3884 11.6882 12.3856 11.7088 12.3826 11.7302C12.3797 11.7513 12.3766 11.7733 12.3736 11.7954L12.8691 11.8623ZM12.8867 11.7344L13.3818 11.8041C13.3853 11.7794 13.3886 11.7549 13.3915 11.7325C13.3946 11.7095 13.3974 11.6884 13.4004 11.6674L12.9053 11.5977L12.4102 11.5279C12.4066 11.5533 12.4033 11.578 12.4003 11.6005C12.3972 11.6236 12.3945 11.6443 12.3916 11.6647L12.8867 11.7344ZM12.9053 11.5977L13.4007 11.6653C13.4039 11.642 13.4071 11.6186 13.4106 11.594C13.414 11.5696 13.4176 11.544 13.4212 11.5179L12.9258 11.4502L12.4304 11.3825C12.4271 11.4066 12.4238 11.4304 12.4203 11.455C12.4169 11.4793 12.4133 11.5046 12.4099 11.53L12.9053 11.5977ZM12.9258 11.4502L13.4212 11.518C13.4435 11.355 13.4658 11.1922 13.4884 11.0299L12.9932 10.9609L12.4979 10.892C12.4752 11.0555 12.4527 11.2195 12.4304 11.3823L12.9258 11.4502ZM12.9932 10.9609L13.4885 11.0291C13.5025 10.9273 13.5229 10.7838 13.5373 10.6783L13.042 10.6104L12.5466 10.5424C12.529 10.6707 12.516 10.7608 12.4978 10.8928L12.9932 10.9609ZM13.042 10.6104L13.5373 10.6784C13.5764 10.3944 13.6159 10.1102 13.6554 9.82553L13.1602 9.75684L12.6649 9.68815C12.6255 9.97223 12.5858 10.2574 12.5467 10.5423L13.042 10.6104ZM13.1602 9.75684L13.6554 9.82551C13.7013 9.49429 13.7467 9.16084 13.7922 8.83095L13.2969 8.7627L12.8016 8.69444C12.7557 9.0271 12.7108 9.35691 12.6649 9.68816L13.1602 9.75684ZM13.2969 8.7627L13.7922 8.83096C13.8736 8.24007 13.9554 7.64882 14.0373 7.05784L13.542 6.98926L13.0467 6.92068C12.9649 7.5117 12.883 8.10321 12.8016 8.69443L13.2969 8.7627ZM13.542 6.98926L14.0373 7.05784C14.1167 6.4845 14.1965 5.90972 14.2756 5.33585L13.7803 5.26758L13.285 5.1993C13.2059 5.77277 13.1262 6.34678 13.0467 6.92068L13.542 6.98926ZM13.7803 5.26758L14.2756 5.33585C14.278 5.31819 14.2805 5.30054 14.2829 5.28286C14.2853 5.26515 14.2878 5.2474 14.2902 5.22941L13.7949 5.16113L13.2996 5.09286C13.2971 5.11105 13.2946 5.12896 13.2922 5.14664C13.2898 5.16436 13.2874 5.18184 13.285 5.1993L13.7803 5.26758ZM13.7949 5.16113L14.2902 5.22941C14.2928 5.21113 14.2952 5.19282 14.2977 5.17502C14.3001 5.15705 14.3025 5.13955 14.3049 5.12199L13.8096 5.05371L13.3143 4.98544C13.3117 5.00424 13.3091 5.02281 13.3067 5.04063C13.3043 5.05863 13.302 5.07584 13.2996 5.09286L13.7949 5.16113ZM13.8096 5.05371L14.3049 5.12188L14.3488 4.80254L13.8535 4.73438L13.3582 4.66621L13.3142 4.98555L13.8096 5.05371ZM13.8535 4.73438L14.3488 4.80266C14.4242 4.25593 14.4998 3.70905 14.5754 3.16218L14.0801 3.09375L13.5848 3.02532C13.5092 3.57206 13.4336 4.11916 13.3582 4.66609L13.8535 4.73438ZM14.0801 3.09375L14.5754 3.16218C14.6028 2.96402 14.6301 2.76528 14.6574 2.56735L14.1621 2.49902L13.6668 2.43069C13.6394 2.62901 13.6121 2.82725 13.5848 3.02532L14.0801 3.09375ZM14.1621 2.49902L14.6574 2.56735C14.7048 2.22409 14.7523 1.88084 14.8 1.5374L14.3047 1.46875L13.8094 1.4001C13.7618 1.74349 13.7142 2.08706 13.6668 2.43069L14.1621 2.49902ZM14.3047 1.46875L14.8 1.53733C14.8154 1.42607 14.8319 1.3028 14.8469 1.19424L14.3516 1.12598L13.8562 1.05771C13.8397 1.17759 13.8256 1.28302 13.8094 1.40017L14.3047 1.46875ZM14.3516 1.12598L14.8469 1.19426C14.8684 1.03848 14.8897 0.883125 14.9113 0.727978L14.416 0.65918L13.9208 0.590382C13.8991 0.746206 13.8776 0.902458 13.8562 1.05769L14.3516 1.12598ZM14.416 0.65918L14.9114 0.727154C14.9142 0.706418 14.9172 0.685402 14.9206 0.662196C14.9239 0.639537 14.9274 0.614815 14.9309 0.589459L14.4355 0.521484L13.9402 0.45351C13.9372 0.474959 13.9342 0.49637 13.9308 0.519501C13.9276 0.542084 13.924 0.566512 13.9207 0.591205L14.416 0.65918ZM14.4355 0.521484L14.9307 0.590598C14.9337 0.569798 14.9366 0.549 14.9395 0.528058C14.9424 0.507113 14.9453 0.486023 14.9483 0.464622L14.4531 0.395508L13.9579 0.326394C13.9549 0.347823 13.952 0.368936 13.9491 0.389878C13.9461 0.410824 13.9432 0.431599 13.9403 0.45237L14.4355 0.521484ZM14.4531 0.395508L14.9484 0.464032C14.9523 0.435752 14.9542 0.421143 14.9561 0.407004C14.9578 0.394026 14.9595 0.381472 14.9631 0.355633L14.4678 0.287109L13.9725 0.218586C13.9685 0.247238 13.9666 0.262034 13.9647 0.276208C13.963 0.289222 13.9614 0.301566 13.9578 0.326984L14.4531 0.395508ZM14.4678 0.287109L14.9611 0.368382C14.9732 0.295263 14.9918 0.219273 15.0163 0.121268L14.5312 0L14.0462 -0.121268C14.0232 -0.0293925 13.9942 0.0858349 13.9744 0.205837L14.4678 0.287109ZM14.5312 0V0.5H18.6562V0V-0.5H14.5312V0ZM17.2549 9.36816L16.9016 9.01434C16.7426 9.17305 16.5847 9.32986 16.4244 9.48961L16.7773 9.84375L17.1303 10.1979C17.288 10.0407 17.4494 9.88046 17.6082 9.72199L17.2549 9.36816ZM16.7773 9.84375L16.4244 9.48961C16.2712 9.64229 16.1165 9.79762 15.9649 9.94904L16.3184 10.3027L16.6718 10.6564C16.8263 10.5021 16.9771 10.3506 17.1303 10.1979L16.7773 9.84375ZM16.3184 10.3027L15.9651 9.94892C15.9064 10.0075 15.8505 10.0628 15.7898 10.1232L16.1426 10.4775L16.4954 10.8319C16.5518 10.7757 16.6134 10.7147 16.6716 10.6566L16.3184 10.3027ZM16.1426 10.4775L15.7898 10.1233C15.7074 10.2052 15.6246 10.2884 15.5439 10.3692L15.8975 10.7227L16.2511 11.0762C16.3336 10.9936 16.4141 10.9128 16.4954 10.8318L16.1426 10.4775ZM15.8975 10.7227L15.5451 10.3679C15.5339 10.379 15.5225 10.3902 15.51 10.4026C15.4977 10.4146 15.4845 10.4277 15.4709 10.4411L15.8232 10.7959L16.1756 11.1507C16.1872 11.1392 16.1988 11.1277 16.2113 11.1155C16.2235 11.1034 16.2366 11.0905 16.2498 11.0774L15.8975 10.7227ZM15.8232 10.7959L15.5086 10.4073C15.4709 10.4379 15.3837 10.5041 15.3175 10.5911C15.2474 10.6833 15.2094 10.787 15.1929 10.8276L15.6562 11.0156L16.1196 11.2036C16.1262 11.1873 16.1307 11.1762 16.1345 11.167C16.1364 11.1627 16.1377 11.1596 16.1387 11.1573C16.1392 11.1562 16.1395 11.1554 16.1398 11.1549C16.14 11.1543 16.1401 11.1541 16.1401 11.1541C16.1401 11.1541 16.1395 11.1554 16.1384 11.1576C16.1372 11.1598 16.1355 11.163 16.1331 11.1671C16.1282 11.1756 16.1216 11.1857 16.1136 11.1963C16.0971 11.218 16.0837 11.2293 16.0874 11.226C16.0895 11.2241 16.094 11.2203 16.1031 11.2128C16.1121 11.2053 16.1229 11.1966 16.1378 11.1845L15.8232 10.7959ZM15.6562 11.0156V11.5156H18.7031V11.0156V10.5156H15.6562V11.0156ZM18.7031 11.0156L19.199 10.9519L19.0408 9.7214L18.5449 9.78516L18.049 9.84892L18.2072 11.0794L18.7031 11.0156ZM18.5449 9.78516L19.0409 9.72208C19.0327 9.65754 19.0244 9.5931 19.0161 9.52874C19.0078 9.46422 18.9994 9.39975 18.9911 9.33438L18.4951 9.39746L17.9991 9.46054C18.0076 9.52701 18.016 9.59241 18.0243 9.65679C18.0327 9.72132 18.0409 9.78481 18.0489 9.84823L18.5449 9.78516ZM18.4951 9.39746L18.9909 9.33296C18.9796 9.2458 18.9638 9.11937 18.9518 9.028L18.4561 9.09277L17.9603 9.15755C17.9748 9.26902 17.9842 9.34627 17.9993 9.46196L18.4951 9.39746ZM18.4561 9.09277L18.9522 9.03057C18.9487 9.00281 18.9451 8.97527 18.9417 8.94904C18.9382 8.92241 18.9349 8.89699 18.9317 8.87139L18.4355 8.93359L17.9394 8.99579C17.943 9.02433 17.9467 9.05224 17.9501 9.07852C17.9536 9.10521 17.9568 9.13019 17.9599 9.15497L18.4561 9.09277ZM18.4355 8.93359L18.9313 8.86821C18.9282 8.84494 18.9252 8.82127 18.922 8.79543C18.9188 8.77013 18.9154 8.74277 18.9117 8.71488L18.416 8.78027L17.9203 8.84566C17.9235 8.86972 17.9265 8.89381 17.9297 8.91958C17.9329 8.94481 17.9363 8.97183 17.9398 8.99898L18.4355 8.93359ZM18.416 8.78027L18.9119 8.71651C18.9089 8.6927 18.9057 8.66919 18.9027 8.6476C18.8997 8.62544 18.897 8.60508 18.8944 8.58468L18.3984 8.64844L17.9025 8.7122C17.9057 8.73664 17.9089 8.76043 17.9118 8.7821C17.9149 8.80433 17.9176 8.82431 17.9201 8.84403L18.416 8.78027ZM18.3984 8.64844L18.8884 8.54894C18.8526 8.37259 18.7952 8.23642 18.7162 8.0971L18.2812 8.34375L17.8463 8.5904C17.8833 8.65555 17.8973 8.69292 17.9084 8.74794L18.3984 8.64844ZM18.2812 8.34375L17.9283 7.98964C17.5857 8.33108 17.2435 8.67292 16.9016 9.01435L17.2549 9.36816L17.6082 9.72198C17.9503 9.38033 18.2921 9.03893 18.6342 8.69786L18.2812 8.34375ZM16.6885 5.65137L16.337 5.29573C16.1713 5.45951 16.0056 5.62263 15.8395 5.7845L16.1885 6.14258L16.5374 6.50066C16.7059 6.33651 16.8734 6.17158 17.0399 6.007L16.6885 5.65137ZM16.1885 6.14258L15.8395 5.78453C15.6769 5.94295 15.5149 6.10222 15.3536 6.26256L15.7061 6.61719L16.0585 6.97181C16.2172 6.81409 16.3769 6.65713 16.5375 6.50063L16.1885 6.14258ZM15.7061 6.61719L15.3545 6.26163C15.2916 6.32388 15.234 6.38128 15.1749 6.43844L15.5225 6.79785L15.8701 7.15727C15.9344 7.09505 15.9984 7.03123 16.0576 6.97274L15.7061 6.61719ZM15.5225 6.79785L15.1794 6.43411C14.9701 6.63147 14.7915 6.79369 14.6704 6.99598C14.5479 7.20055 14.4925 7.4322 14.4223 7.70245L14.9062 7.82812L15.3902 7.9538C15.4747 7.62853 15.4967 7.56251 15.5284 7.50958C15.5615 7.45435 15.6136 7.3992 15.8655 7.1616L15.5225 6.79785ZM14.9062 7.82812L14.411 7.7591C14.3997 7.84026 14.3883 7.91982 14.3761 7.99825L14.8701 8.0752L15.3642 8.15214C15.3775 8.0662 15.3898 7.98075 15.4015 7.89715L14.9062 7.82812ZM14.8701 8.0752L14.3745 8.00914C14.3629 8.09618 14.3514 8.18337 14.3401 8.27067L14.8359 8.33496L15.3318 8.39925C15.3429 8.31333 15.3543 8.22735 15.3657 8.14125L14.8701 8.0752ZM14.8359 8.33496L14.3403 8.26935C14.3372 8.29261 14.3341 8.31604 14.331 8.33945C14.3279 8.36291 14.3248 8.38638 14.3217 8.40997L14.8174 8.47559L15.3131 8.5412C15.3162 8.51724 15.3194 8.49347 15.3224 8.47005C15.3255 8.44658 15.3286 8.42347 15.3316 8.40058L14.8359 8.33496ZM14.8174 8.47559L14.3217 8.41008C14.3026 8.55486 14.283 8.70134 14.264 8.84736L14.7598 8.91211L15.2556 8.97685C15.2745 8.83181 15.2938 8.68732 15.3131 8.54109L14.8174 8.47559ZM14.7598 8.91211L14.264 8.8468C14.2499 8.95436 14.2389 9.04023 14.225 9.14548L14.7207 9.21094L15.2164 9.27639C15.2288 9.18268 15.2434 9.06884 15.2555 8.97742L14.7598 8.91211ZM14.7207 9.21094L14.225 9.14554C14.1931 9.38729 14.1609 9.63009 14.1292 9.87272L14.625 9.9375L15.1208 10.0023C15.1524 9.76047 15.1844 9.51895 15.2164 9.27633L14.7207 9.21094ZM14.625 9.9375L14.9491 10.3183C15.5045 9.84555 16.0404 9.35475 16.565 8.85674L16.2207 8.49414L15.8764 8.13154C15.3603 8.62159 14.8384 9.09935 14.3009 9.55672L14.625 9.9375ZM16.2207 8.49414L16.5647 8.85702C16.7484 8.6829 16.9325 8.51254 17.1194 8.3471L16.7881 7.97266L16.4567 7.59822C16.2588 7.77334 16.066 7.95185 15.8767 8.13126L16.2207 8.49414ZM16.7881 7.97266L17.1042 8.36008C17.5264 8.01563 17.7968 7.79836 18.0068 7.53429C18.2184 7.26832 18.3619 6.96353 18.5882 6.49321L18.1377 6.27637L17.6872 6.05953C17.4422 6.56855 17.35 6.7536 17.2242 6.91179C17.0969 7.07188 16.9282 7.21309 16.472 7.58523L16.7881 7.97266ZM18.1377 6.27637L18.6372 6.29851C18.6653 5.66413 18.5211 4.93232 18.2042 4.3536L17.7656 4.59375L17.3271 4.8339C17.5459 5.23346 17.6592 5.77997 17.6382 6.25422L18.1377 6.27637ZM17.7656 4.59375L17.4164 4.2359C17.0557 4.58791 16.6956 4.9412 16.337 5.2958L16.6885 5.65137L17.04 6.00694C17.3969 5.6541 17.7554 5.30235 18.1148 4.9516L17.7656 4.59375ZM15.6299 2.57812L15.1348 2.50799C15.1009 2.74754 15.0674 2.98574 15.0333 3.22428L15.5283 3.29492L16.0233 3.36557C16.0574 3.12642 16.0912 2.88646 16.1249 2.64826L15.6299 2.57812ZM15.5283 3.29492L15.0333 3.22428C15.0058 3.41722 14.9784 3.61033 14.9512 3.8031L15.4463 3.87305L15.9414 3.943C15.9686 3.75045 15.9959 3.55786 16.0233 3.36556L15.5283 3.29492ZM15.4463 3.87305L14.9512 3.80291C14.9408 3.8762 14.9305 3.94907 14.9201 4.02186L15.415 4.09277L15.91 4.16368C15.9205 4.09001 15.931 4.01639 15.9413 3.94318L15.4463 3.87305ZM15.415 4.09277L14.9201 4.02191C14.9053 4.12527 14.8905 4.22924 14.876 4.33268L15.3711 4.40234L15.8662 4.47201C15.8807 4.36941 15.8953 4.26624 15.91 4.16364L15.415 4.09277ZM15.3711 4.40234L14.8761 4.332C14.872 4.36096 14.8678 4.39003 14.8635 4.41965C14.8593 4.44918 14.855 4.47924 14.8507 4.50974L15.3457 4.58008L15.8407 4.65042C15.845 4.62057 15.8492 4.59105 15.8534 4.56144C15.8577 4.53192 15.8619 4.5023 15.8661 4.47269L15.3711 4.40234ZM15.3457 4.58008L14.849 4.52292C14.8313 4.67625 14.8239 4.82489 14.8283 4.98269L15.3281 4.96875L15.8279 4.95481C15.825 4.84813 15.8298 4.74714 15.8424 4.63724L15.3457 4.58008ZM15.3281 4.96875L15.6529 5.34895C15.7629 5.255 15.8727 5.16087 15.9823 5.06657L15.6562 4.6875L15.3302 4.30843C15.2214 4.40201 15.1125 4.49538 15.0034 4.58855L15.3281 4.96875ZM15.6562 4.6875L15.9821 5.06674C15.9998 5.05151 16.0176 5.03622 16.0351 5.02114C16.0527 5.00597 16.07 4.99098 16.0876 4.97592L15.7617 4.59668L15.4359 4.21744C15.4176 4.23312 15.3996 4.24863 15.3821 4.26372C15.3645 4.2789 15.3474 4.29366 15.3304 4.30826L15.6562 4.6875ZM15.7617 4.59668L16.0656 4.99375C16.6499 4.54659 16.9977 4.28329 17.2753 3.9676C17.5551 3.64939 17.7572 3.28537 18.0969 2.68172L17.6611 2.43652L17.2254 2.19133C16.8667 2.82884 16.7194 3.08541 16.5244 3.30723C16.3271 3.53159 16.0744 3.72778 15.4578 4.19961L15.7617 4.59668ZM17.6611 2.43652L18.1611 2.44452C18.1693 1.93316 17.9838 1.55767 17.8577 1.22774L17.3906 1.40625L16.9236 1.58476C17.0863 2.01042 17.1655 2.16008 17.1612 2.42852L17.6611 2.43652ZM17.3906 1.40625V0.90625H15.7969V1.40625V1.90625H17.3906V1.40625ZM15.7969 1.40625L15.3019 1.33572C15.2185 1.92084 15.218 1.92197 15.1348 2.50785L15.6299 2.57812L16.1249 2.6484C16.2081 2.06264 16.2083 2.06322 16.2919 1.47678L15.7969 1.40625ZM5.76562 0.0761719L5.76214 0.57616C5.9089 0.577183 6.05596 0.579565 6.20586 0.581967L6.21387 0.0820312L6.22188 -0.417905C6.07293 -0.420291 5.92122 -0.422756 5.76911 -0.423816L5.76562 0.0761719ZM6.21387 0.0820312L6.20925 0.58201C6.30894 0.58293 6.41367 0.584179 6.51577 0.584947L6.51953 0.0849609L6.52329 -0.415025C6.42162 -0.41579 6.32257 -0.416986 6.21848 -0.417947L6.21387 0.0820312ZM6.51953 0.0849609L6.51572 0.584946C6.76262 0.586829 7.01 0.590114 7.25841 0.593698L7.26562 0.09375L7.27284 -0.406198C7.02391 -0.40979 6.77377 -0.413115 6.52334 -0.415025L6.51953 0.0849609ZM7.26562 0.09375H6.76562V1.5H7.26562H7.76562V0.09375H7.26562ZM7.26562 1.5V1H5.625V1.5V2H7.26562V1.5ZM5.625 1.5L5.13993 1.37873L5.04618 1.75373L5.53125 1.875L6.01632 1.99627L6.11007 1.62127L5.625 1.5ZM5.53125 1.875L5.07621 1.66778C4.98191 1.87485 4.84447 1.99812 4.57153 2.12423L4.78125 2.57812L4.99097 3.03202C5.40521 2.84062 5.76284 2.57289 5.98629 2.08222L5.53125 1.875ZM4.78125 2.57812L4.6401 2.09846C4.52998 2.13087 4.41822 2.13133 4.19957 2.12989L4.19629 2.62988L4.19301 3.12987C4.37589 3.13107 4.64421 3.13965 4.9224 3.05779L4.78125 2.57812ZM4.19629 2.62988L4.19716 2.12988C4.17154 2.12984 4.15953 2.12965 4.14613 2.12945C4.13029 2.12921 4.11319 2.12896 4.08095 2.12891L4.08008 2.62891L4.07921 3.12891C4.10547 3.12895 4.11781 3.12914 4.1311 3.12934C4.14685 3.12958 4.16369 3.12983 4.19542 3.12988L4.19629 2.62988ZM4.08008 2.62891L4.08115 2.12891C3.95862 2.12864 3.83812 2.12853 3.71729 2.12794L3.71484 2.62793L3.71239 3.12792C3.83505 3.12852 3.95805 3.12864 4.079 3.12891L4.08008 2.62891ZM3.71484 2.62793L3.71627 2.12793C3.64011 2.12772 3.54682 2.12714 3.46796 2.12695L3.4668 2.62695L3.46564 3.12695C3.55214 3.12715 3.62421 3.12767 3.71342 3.12793L3.71484 2.62793ZM3.4668 2.62695L3.46807 2.12695C3.26542 2.12644 3.06353 2.12597 2.86176 2.12501L2.85938 2.625L2.85699 3.12499C3.06012 3.12596 3.26327 3.12644 3.46552 3.12695L3.4668 2.62695ZM2.85938 2.625H2.35938V3.04688H2.85938H3.35938V2.625H2.85938ZM2.85938 3.04688V2.54688H1.40625V3.04688V3.54688H2.85938V3.04688ZM1.40625 3.04688L1.90603 3.03196C1.8904 2.50855 1.88859 2.33562 1.91099 2.22227C1.92482 2.15228 1.94249 2.11362 2.11352 1.85463L1.69629 1.5791L1.27906 1.30357C1.13068 1.52826 0.988641 1.73145 0.92996 2.02841C0.879848 2.282 0.892721 2.60112 0.906473 3.06179L1.40625 3.04688ZM1.69629 1.5791L2.04172 1.9406C2.16746 1.82045 2.27513 1.7587 2.38146 1.72261C2.49314 1.6847 2.63099 1.66568 2.83172 1.66698L2.83496 1.16699L2.8382 0.667003C2.57659 0.665308 2.31643 0.688638 2.06002 0.775676C1.79827 0.864529 1.56777 1.01034 1.35086 1.21761L1.69629 1.5791ZM2.83496 1.16699L2.83409 1.66699C2.85027 1.66702 2.86694 1.66721 2.88676 1.66745C2.90575 1.66767 2.92771 1.66793 2.9503 1.66797L2.95117 1.16797L2.95204 0.66797C2.93524 0.66794 2.91821 0.667746 2.89851 0.667514C2.87962 0.667292 2.85788 0.667031 2.83583 0.666993L2.83496 1.16699ZM2.95117 1.16797L2.9501 1.66797C3.07263 1.66823 3.19313 1.66835 3.31396 1.66894L3.31641 1.16895L3.31886 0.668951C3.1962 0.66835 3.0732 0.66823 2.95225 0.66797L2.95117 1.16797ZM3.31641 1.16895L3.31498 1.66894C3.39114 1.66916 3.48443 1.66974 3.56329 1.66992L3.56445 1.16992L3.56561 0.669923C3.47911 0.669723 3.40704 0.669201 3.31783 0.668947L3.31641 1.16895ZM3.56445 1.16992L3.56318 1.66992C3.76584 1.67044 3.96772 1.67091 4.16949 1.67187L4.17188 1.17188L4.17426 0.671881C3.97112 0.670914 3.76798 0.670439 3.56573 0.669923L3.56445 1.16992ZM4.17188 1.17188L4.65552 1.29873C4.66008 1.28132 4.66448 1.26409 4.66843 1.24861C4.67252 1.23263 4.67619 1.21827 4.67993 1.204L4.19629 1.07715L3.71265 0.950294C3.70796 0.968156 3.70352 0.985569 3.69954 1.00112C3.69544 1.01717 3.69185 1.03125 3.68823 1.04502L4.17188 1.17188ZM4.19629 1.07715L4.67803 1.21104C4.74343 0.975709 4.77447 0.895932 4.85094 0.812532L4.48242 0.474609L4.1139 0.136687C3.85798 0.415778 3.77826 0.714009 3.71455 0.943257L4.19629 1.07715ZM4.48242 0.474609L4.8588 0.803763C4.87344 0.787014 4.88808 0.770224 4.90249 0.753692C4.91698 0.737056 4.93128 0.720656 4.94571 0.704154L4.56934 0.375L4.19296 0.045846C4.17788 0.0630868 4.16304 0.0801158 4.14862 0.0966612C4.13411 0.113312 4.12004 0.129454 4.10605 0.145455L4.48242 0.474609ZM4.56934 0.375L4.88057 0.766321C5.07719 0.609942 5.2618 0.567576 5.61134 0.57508L5.62207 0.0751953L5.6328 -0.424689C5.16901 -0.434647 4.71292 -0.378061 4.2581 -0.0163214L4.56934 0.375ZM5.62207 0.0751953L5.61926 0.575187C5.65417 0.575383 5.67154 0.575523 5.68932 0.575665C5.70753 0.57581 5.72612 0.575958 5.76282 0.576164L5.76562 0.0761719L5.76843 -0.42382C5.7328 -0.42402 5.71506 -0.424162 5.6973 -0.424303C5.67911 -0.424449 5.66087 -0.424595 5.62488 -0.424797L5.62207 0.0751953Z" fill="#1E1E1E" mask="url(#path-1-inside-1_951_12000)"/>
</g>
<defs>
<clipPath id="clip0_951_12000">
<rect width="24" height="24" fill="white"/>
</clipPath>
</defs>
</svg>
