<svg width="24" height="24" viewBox="0 0 24 24" fill="none" xmlns="http://www.w3.org/2000/svg">
<g clip-path="url(#clip0_15_1456)">
<path d="M2.82717 0.410131C3.9287 -0.075667 5.27139 -0.199402 6.4219 0.187475C6.47362 0.20391 6.52584 0.220346 6.57913 0.237279C7.85383 0.682923 8.84437 1.62156 9.43362 2.82712C9.95488 4.00904 10.0485 5.45221 9.58206 6.66697C9.50568 6.85515 9.41959 7.03745 9.32815 7.21872L9.25686 7.3613C9.05203 7.73775 8.78577 8.06564 8.52053 8.40036C8.34232 8.62591 8.17079 8.85594 8.001 9.08786C7.9739 9.12486 7.94689 9.16206 7.91897 9.20017C7.86661 9.27167 7.81409 9.3435 7.76174 9.41501C7.59837 9.63735 7.43182 9.85786 7.26565 10.0781L7.36233 10.1162C8.27315 10.4844 9.26213 10.9217 9.70315 11.8593C9.70785 11.9041 9.71296 11.949 9.7178 11.9951C9.74054 12.1799 9.77572 12.2734 9.89065 12.4218C10.2318 12.61 10.6425 12.6714 11.0186 12.7568C11.1323 12.7844 11.2458 12.8128 11.3594 12.8408C11.628 12.9063 11.8977 12.969 12.167 13.0312C12.4425 13.0951 12.7175 13.1623 12.9922 13.2295C13.2833 13.3005 13.5748 13.3699 13.8662 13.4394C13.9219 13.4528 13.9779 13.4666 14.0352 13.4804C14.1924 13.5181 14.3503 13.5545 14.5078 13.5908C14.5543 13.602 14.6006 13.6134 14.6485 13.625C14.9498 13.6971 14.95 13.6972 15.2344 13.5937C15.285 13.5637 15.2853 13.5639 15.3369 13.5332C15.3718 13.5107 15.4065 13.488 15.4424 13.4648C16.5409 12.7966 17.7867 12.6392 19.0459 12.6357C19.0849 12.6354 19.1239 12.635 19.1641 12.6347C20.6412 12.6277 22.3243 12.9546 23.4112 14.0283C23.5726 14.2001 23.7016 14.3703 23.8125 14.5781C23.8317 14.6113 23.8513 14.6445 23.8711 14.6787C24.0888 15.1185 24.0766 15.7175 23.9239 16.1777C23.7802 16.5087 23.5601 16.7717 23.2969 17.0156C23.2757 17.0365 23.2543 17.0575 23.2324 17.0791C22.1616 18.0776 20.4305 18.3018 19.0371 18.2988C18.9772 18.2988 18.9771 18.2988 18.916 18.2988C17.3755 18.2957 17.3749 18.2958 16.7959 18.0166C16.5756 17.9167 16.4226 17.8653 16.1875 17.9531C15.8753 18.102 15.583 18.283 15.291 18.4677C15.1043 18.5853 14.9142 18.6973 14.7237 18.8086C14.596 18.8832 14.4688 18.9584 14.3418 19.0342C14.048 19.2089 13.7508 19.3787 13.4532 19.5469C13.5189 19.692 13.599 19.801 13.7022 19.9219C14.0723 20.3996 14.1742 20.8713 14.1231 21.4638C14.0337 22.1193 13.5281 22.6248 13.0313 23.0156C12.468 23.3918 11.8543 23.634 11.2002 23.8008C11.1638 23.8101 11.1274 23.8195 11.0899 23.8291C10.4619 23.9803 9.84487 24.0176 9.20217 24.0146C9.14316 24.0145 9.14305 24.0148 9.08303 24.0146C8.51386 24.0123 7.96091 23.9989 7.40628 23.8594C7.34748 23.845 7.34715 23.8447 7.28713 23.8301C6.25032 23.5715 5.12202 23.1714 4.50295 22.2422C4.45342 22.1572 4.40535 22.0713 4.3594 21.9844C4.34254 21.9525 4.32599 21.9205 4.30862 21.8877C4.13613 21.4796 4.1406 20.87 4.29495 20.458C4.32962 20.3874 4.36676 20.3179 4.40628 20.25C4.42611 20.2148 4.44639 20.1798 4.46682 20.1435C5.01834 19.2464 6.08364 18.7557 7.07815 18.5156C7.11293 18.5071 7.14779 18.499 7.18362 18.4902C8.58224 18.1647 10.3414 18.1521 11.6914 18.6777C11.9301 18.7274 12.1418 18.5903 12.3438 18.4726C12.3911 18.4452 12.4386 18.4179 12.4873 18.3896C12.5381 18.3598 12.5893 18.3295 12.6416 18.2988C12.6944 18.2681 12.7474 18.2377 12.8018 18.206C13.2607 17.9388 13.7179 17.6676 14.1739 17.3955C14.224 17.3656 14.2745 17.3355 14.3262 17.3047C14.3704 17.2783 14.4145 17.2518 14.46 17.2246C14.5604 17.1665 14.6612 17.1128 14.7657 17.0625C14.7053 16.9302 14.6409 16.8355 14.5401 16.7314C14.299 16.459 14.1019 16.0602 14.1045 15.6924C14.1047 15.6548 14.1053 15.6168 14.1055 15.5781C14.1059 15.5392 14.1061 15.5001 14.1065 15.4599C14.1067 15.4204 14.1072 15.3806 14.1074 15.3398C14.108 15.2422 14.1085 15.1445 14.1094 15.0468C13.8294 14.9501 13.5484 14.8653 13.2617 14.791C13.2216 14.7805 13.181 14.7706 13.1397 14.7597C12.7728 14.664 12.4056 14.5696 12.0381 14.4765C11.7918 14.4142 11.5456 14.3517 11.2998 14.2871C11.0611 14.2243 10.8215 14.1634 10.5821 14.1035C10.4912 14.0805 10.4001 14.0564 10.3096 14.0322C10.1831 13.9985 10.0559 13.9666 9.92874 13.9355C9.89172 13.9251 9.85457 13.915 9.81643 13.9043C9.65876 13.8678 9.56325 13.8473 9.41995 13.9316C9.3364 14.0025 9.26155 14.0756 9.18753 14.1562C9.15756 14.1846 9.12757 14.213 9.09671 14.2422C9.07165 14.266 9.04635 14.2899 9.02053 14.3144C7.93349 15.2614 6.32561 15.4998 4.93655 15.4892C4.89594 15.4891 4.85533 15.4894 4.8135 15.4892C3.39088 15.4813 1.85199 15.228 0.750025 14.25C0.717966 14.2228 0.685401 14.1959 0.652369 14.1679C0.291368 13.8392 0.0218657 13.3872 -0.0126699 12.8955C-0.0324314 12.2624 0.0887331 11.7832 0.51565 11.2968C0.537978 11.2702 0.56003 11.2433 0.583033 11.2158C1.02671 10.7275 1.65192 10.463 2.25003 10.2187C2.35956 10.1723 2.46888 10.1252 2.57815 10.0781C2.55889 10.053 2.5394 10.0278 2.51956 10.0019C2.08896 9.43972 1.66232 8.87496 1.24514 8.30271C1.17743 8.21022 1.10868 8.11816 1.04006 8.02634C0.597076 7.42858 0.274034 6.81939 0.0937754 6.09372C0.0851004 6.05988 0.0763457 6.02605 0.0674082 5.99119C-0.012764 5.64293 -0.0180236 5.29859 -0.0175527 4.94236C-0.0175379 4.89599 -0.0175678 4.89588 -0.0175527 4.84861C-0.0159614 4.34887 0.0280667 3.89603 0.187525 3.42185C0.203915 3.37027 0.220446 3.31874 0.23733 3.2656C0.683414 1.9893 1.62016 1.00083 2.82717 0.410131ZM11.335 20.0732C9.70505 19.5545 7.32591 19.4789 5.91995 20.6357C5.77264 20.7859 5.65179 20.9268 5.62503 21.1406C5.65802 21.4088 5.84938 21.5831 6.0469 21.75C7.24421 22.5983 8.85738 22.7053 10.2657 22.5C11.1191 22.3521 12.0694 22.1058 12.6094 21.375C12.6765 21.2407 12.6706 21.1493 12.6563 21C12.4131 20.5138 11.8283 20.2456 11.335 20.0732ZM21.2256 14.4013C19.5957 13.8826 17.2165 13.807 15.8106 14.9638C15.6574 15.12 15.5423 15.2536 15.5274 15.4775C15.5867 15.7793 15.72 15.9247 15.961 16.1045C17.2145 16.9311 19.0362 17.0184 20.4756 16.7314C21.165 16.583 21.9763 16.3468 22.4531 15.7968C22.5487 15.6326 22.5698 15.5192 22.5469 15.3281C22.3037 14.8419 21.7189 14.5737 21.2256 14.4013ZM6.16897 11.4785C6.07001 11.6096 5.97031 11.7401 5.87112 11.8711C5.83692 11.9164 5.80284 11.962 5.7676 12.0088C5.73438 12.0526 5.70125 12.0965 5.66702 12.1416C5.63658 12.1818 5.60561 12.2222 5.57424 12.2636C5.35743 12.5322 5.3574 12.5322 5.20315 12.6093C5.11252 12.6163 5.02158 12.6197 4.93069 12.6211C4.88205 12.6223 4.83334 12.6237 4.78323 12.625C4.58148 12.6032 4.45627 12.5251 4.32131 12.374C4.28344 12.3212 4.28391 12.3206 4.24514 12.2666C4.21698 12.2278 4.18822 12.1894 4.1592 12.1494C4.1305 12.1089 4.10186 12.068 4.07229 12.0263C4.04325 11.9861 4.01432 11.9457 3.9844 11.9043C3.93031 11.8293 3.87596 11.754 3.82229 11.6787C3.79845 11.6455 3.77458 11.6123 3.75003 11.5781C3.71358 11.5254 3.71304 11.5255 3.67581 11.4717C3.65378 11.4451 3.6321 11.418 3.6094 11.3906C2.97086 11.3906 2.09955 11.7854 1.65139 12.2207C1.53014 12.3631 1.46055 12.4754 1.42678 12.6592C1.46737 12.9433 1.61174 13.0847 1.82815 13.2656C3.12493 14.1184 4.87989 14.2163 6.36624 13.9189C7.06916 13.7674 7.86873 13.5315 8.33108 12.9453C8.42248 12.7895 8.43031 12.6907 8.39065 12.5156C8.13951 11.9916 7.52458 11.7493 7.00881 11.5674C6.75051 11.4848 6.5039 11.4247 6.2344 11.3906C6.21266 11.4194 6.19137 11.4488 6.16897 11.4785ZM5.18264 1.41208C4.11779 1.35846 3.15927 1.75225 2.39065 2.48435C1.69623 3.20655 1.4225 4.09526 1.4346 5.08005C1.46185 6.01257 1.88392 6.72844 2.43753 7.4531C2.4789 7.50757 2.4793 7.50788 2.52151 7.56345C2.64696 7.72858 2.77238 7.89392 2.89846 8.05857C3.10715 8.33121 3.31283 8.60576 3.51565 8.88279C3.81374 9.28976 4.11924 9.69116 4.42581 10.0918C4.57694 10.2893 4.72625 10.4882 4.87503 10.6875C5.0261 10.6232 5.10346 10.558 5.19827 10.4248L5.27444 10.3193C5.30127 10.2814 5.32785 10.2431 5.35549 10.2041C5.41423 10.1227 5.47336 10.0412 5.53225 9.95994C5.5628 9.91768 5.59355 9.87554 5.62503 9.83201C5.77812 9.6226 5.93584 9.41668 6.09378 9.21091C6.35957 8.86367 6.62213 8.51434 6.87991 8.16111C7.02036 7.96898 7.16248 7.77865 7.30862 7.5908C8.13357 6.52569 8.51686 5.55167 8.3721 4.1865C8.25507 3.64601 7.95001 3.09107 7.59378 2.67185L7.48831 2.53122C6.9134 1.86237 6.04134 1.50632 5.18264 1.41208ZM3.37503 3.42185C4.07901 2.67796 5.27314 2.58309 6.12112 3.124C6.56515 3.44971 6.91547 3.90423 7.03128 4.4531C7.09205 5.10967 7.03888 5.68576 6.6387 6.23142C6.29888 6.63018 5.833 6.99001 5.29299 7.04001C4.61123 7.0647 4.05311 7.015 3.51174 6.55369C3.13062 6.19657 2.81925 5.7247 2.79983 5.18845C2.78032 4.49249 2.88319 3.94676 3.37503 3.42185ZM4.80178 4.249C4.58325 4.28052 4.46007 4.39214 4.31838 4.55271C4.23919 4.7551 4.23475 4.9419 4.26565 5.15622C4.36703 5.36275 4.47178 5.49367 4.68753 5.5781C4.92393 5.61017 5.10147 5.60501 5.31741 5.499C5.47483 5.35693 5.56361 5.26201 5.5928 5.04685C5.60523 4.77895 5.57663 4.61231 5.39065 4.40622C5.21081 4.24757 5.03278 4.24144 4.80178 4.249Z" fill="black"/>
</g>
<defs>
<clipPath id="clip0_15_1456">
<rect width="24" height="24" fill="white"/>
</clipPath>
</defs>
</svg>
