<svg width="24" height="24" viewBox="0 0 24 24" fill="none" xmlns="http://www.w3.org/2000/svg">
<path d="M9.26368 22L8.86567 18.8C8.65008 18.7167 8.4471 18.6167 8.25672 18.5C8.06567 18.3833 7.87894 18.2583 7.69652 18.125L4.73632 19.375L2 14.625L4.56219 12.675C4.54561 12.5583 4.53731 12.4457 4.53731 12.337V11.662C4.53731 11.554 4.54561 11.4417 4.56219 11.325L2 9.375L4.73632 4.625L7.69652 5.875C7.87894 5.74167 8.06965 5.61667 8.26866 5.5C8.46766 5.38333 8.66667 5.28333 8.86567 5.2L9.26368 2H14.7363L15.1343 5.2C15.3499 5.28333 15.5532 5.38333 15.7443 5.5C15.9347 5.61667 16.1211 5.74167 16.3035 5.875L19.2637 4.625L22 9.375L19.4378 11.325C19.4544 11.4417 19.4627 11.554 19.4627 11.662V12.337C19.4627 12.4457 19.4461 12.5583 19.4129 12.675L21.9751 14.625L19.2388 19.375L16.3035 18.125C16.1211 18.2583 15.9304 18.3833 15.7313 18.5C15.5323 18.6167 15.3333 18.7167 15.1343 18.8L14.7363 22H9.26368ZM12.0498 15.5C13.0116 15.5 13.8325 15.1583 14.5124 14.475C15.1924 13.7917 15.5323 12.9667 15.5323 12C15.5323 11.0333 15.1924 10.2083 14.5124 9.525C13.8325 8.84167 13.0116 8.5 12.0498 8.5C11.0713 8.5 10.2461 8.84167 9.57413 9.525C8.90282 10.2083 8.56717 11.0333 8.56717 12C8.56717 12.9667 8.90282 13.7917 9.57413 14.475C10.2461 15.1583 11.0713 15.5 12.0498 15.5ZM12.0498 13.5C11.6352 13.5 11.2829 13.354 10.993 13.062C10.7025 12.7707 10.5572 12.4167 10.5572 12C10.5572 11.5833 10.7025 11.2293 10.993 10.938C11.2829 10.646 11.6352 10.5 12.0498 10.5C12.4643 10.5 12.8169 10.646 13.1075 10.938C13.3973 11.2293 13.5423 11.5833 13.5423 12C13.5423 12.4167 13.3973 12.7707 13.1075 13.062C12.8169 13.354 12.4643 13.5 12.0498 13.5ZM11.005 20H12.9702L13.3184 17.35C13.8325 17.2167 14.3095 17.0207 14.7493 16.762C15.1884 16.504 15.5904 16.1917 15.9552 15.825L18.4179 16.85L19.3881 15.15L17.2488 13.525C17.3317 13.2917 17.3897 13.0457 17.4229 12.787C17.4561 12.529 17.4726 12.2667 17.4726 12C17.4726 11.7333 17.4561 11.4707 17.4229 11.212C17.3897 10.954 17.3317 10.7083 17.2488 10.475L19.3881 8.85L18.4179 7.15L15.9552 8.2C15.5904 7.81667 15.1884 7.49567 14.7493 7.237C14.3095 6.979 13.8325 6.78333 13.3184 6.65L12.995 4H11.0299L10.6816 6.65C10.1675 6.78333 9.69088 6.979 9.25174 7.237C8.81194 7.49567 8.40962 7.80833 8.04478 8.175L5.58209 7.15L4.61194 8.85L6.75124 10.45C6.66832 10.7 6.61028 10.95 6.57712 11.2C6.54395 11.45 6.52736 11.7167 6.52736 12C6.52736 12.2667 6.54395 12.525 6.57712 12.775C6.61028 13.025 6.66832 13.275 6.75124 13.525L4.61194 15.15L5.58209 16.85L8.04478 15.8C8.40962 16.1833 8.81194 16.504 9.25174 16.762C9.69088 17.0207 10.1675 17.2167 10.6816 17.35L11.005 20Z" fill="black"/>
</svg>
