<svg width="24" height="24" viewBox="0 0 24 24" fill="none" xmlns="http://www.w3.org/2000/svg">
<path d="M12 10.8889C9.22222 10.8889 6.86111 10.4537 4.91667 9.58333C2.97222 8.71296 2 7.66667 2 6.44444C2 5.22222 2.97222 4.17593 4.91667 3.30556C6.86111 2.43519 9.22222 2 12 2C14.7778 2 17.1389 2.43519 19.0833 3.30556C21.0278 4.17593 22 5.22222 22 6.44444C22 7.66667 21.0278 8.71296 19.0833 9.58333C17.1389 10.4537 14.7778 10.8889 12 10.8889ZM12 16.4444C9.22222 16.4444 6.86111 16.0093 4.91667 15.1389C2.97222 14.2685 2 13.2222 2 12V9.22222C2 10.037 2.37963 10.727 3.13889 11.2922C3.89815 11.8567 4.80556 12.3148 5.86111 12.6667C6.91667 13.0185 8.01407 13.273 9.15333 13.43C10.2919 13.5878 11.2407 13.6667 12 13.6667C12.7593 13.6667 13.7081 13.5878 14.8467 13.43C15.9859 13.273 17.0833 13.0185 18.1389 12.6667C19.1944 12.3148 20.1019 11.8567 20.8611 11.2922C21.6204 10.727 22 10.037 22 9.22222V12C22 13.2222 21.0278 14.2685 19.0833 15.1389C17.1389 16.0093 14.7778 16.4444 12 16.4444ZM12 22C9.22222 22 6.86111 21.5648 4.91667 20.6944C2.97222 19.8241 2 18.7778 2 17.5556V14.7778C2 15.5926 2.37963 16.2826 3.13889 16.8478C3.89815 17.4122 4.80556 17.8704 5.86111 18.2222C6.91667 18.5741 8.01407 18.8289 9.15333 18.9867C10.2919 19.1437 11.2407 19.2222 12 19.2222C12.7593 19.2222 13.7081 19.1437 14.8467 18.9867C15.9859 18.8289 17.0833 18.5741 18.1389 18.2222C19.1944 17.8704 20.1019 17.4122 20.8611 16.8478C21.6204 16.2826 22 15.5926 22 14.7778V17.5556C22 18.7778 21.0278 19.8241 19.0833 20.6944C17.1389 21.5648 14.7778 22 12 22Z" fill="black"/>
</svg>
