<svg width="24" height="24" viewBox="0 0 24 24" fill="none" xmlns="http://www.w3.org/2000/svg">
<path d="M16.5 12C19 12 21 14 21 16.5C21 17.4 20.6998 18.2004 20.2998 18.9004L23 21.5996L21.5996 23L18.9004 20.2998C18.2004 20.6998 17.4 21 16.5 21C14 21 12 19 12 16.5C12 14 14 12 16.5 12ZM12 1C13.3 1 14.4003 1.84 14.8203 3H19C20.1 3 21 3.9 21 5V10H19V5H17V8H7V5H5V19H10V21H5C3.9 21 3 20.1 3 19V5C3 3.9 3.9 3 5 3H9.17969C9.59969 1.84 10.7 1 12 1ZM16.5 14C15.1 14 14 15.1 14 16.5C14 17.9 15.1 19 16.5 19C17.9 19 19 17.9 19 16.5C19 15.1 17.9 14 16.5 14ZM12 3C11.45 3 11 3.45 11 4C11 4.55 11.45 5 12 5C12.55 5 13 4.55 13 4C13 3.45 12.55 3 12 3Z" fill="black"/>
</svg>
