<svg width="24" height="24" viewBox="0 0 24 24" fill="none" xmlns="http://www.w3.org/2000/svg">
<path d="M19.3 9.175L15.05 4.975L16.45 3.575C16.8333 3.19167 17.3043 3 17.863 3C18.421 3 18.8917 3.19167 19.275 3.575L20.675 4.975C21.0583 5.35833 21.2583 5.821 21.275 6.363C21.2917 6.90433 21.1083 7.36667 20.725 7.75L19.3 9.175ZM4 21.25C3.71667 21.25 3.47933 21.154 3.288 20.962C3.096 20.7707 3 20.5333 3 20.25V17.425C3 17.2917 3.025 17.1627 3.075 17.038C3.125 16.9127 3.2 16.8 3.3 16.7L13.6 6.4L17.85 10.65L7.55 20.95C7.45 21.05 7.33767 21.125 7.213 21.175C7.08767 21.225 6.95833 21.25 6.825 21.25H4Z" fill="black"/>
</svg>
