<svg width="24" height="24" viewBox="0 0 24 24" fill="none" xmlns="http://www.w3.org/2000/svg">
<g clip-path="url(#clip0_904_11887)">
<path d="M2.51465 21.1382C3.30716 20.3672 4.58988 20.0267 5.53516 20.775C5.69105 20.9084 5.83753 21.0517 5.98438 21.1949C6.05549 21.2607 6.12715 21.3264 6.19922 21.3912C6.22846 21.4178 6.25795 21.4448 6.28809 21.4722C6.50114 21.6435 6.69033 21.6488 6.95898 21.6431C7.29378 21.6 7.48583 21.3725 7.71094 21.1392C7.88566 20.9593 8.06179 20.8132 8.27246 20.6773C8.29679 20.6614 8.32162 20.6448 8.34668 20.6285C8.82204 20.3337 9.45099 20.3195 9.9873 20.4302C10.5385 20.5855 10.9628 20.9625 11.3525 21.3668C11.5505 21.5671 11.7152 21.6328 11.9971 21.6441C12.4171 21.6302 12.5915 21.4251 12.8711 21.1382C13.2852 20.7343 13.7721 20.4071 14.3633 20.3785C14.3957 20.3768 14.4285 20.3753 14.4619 20.3736C15.1536 20.3539 15.6565 20.5656 16.168 21.023C16.2348 21.0896 16.3015 21.1575 16.3672 21.2252C16.6271 21.4868 16.8034 21.6352 17.1836 21.649C17.4139 21.6384 17.5404 21.6117 17.7148 21.4527C17.7467 21.4246 17.7787 21.3967 17.8115 21.3677C17.9568 21.2391 18.1008 21.1092 18.2402 20.9742C18.6228 20.6124 19.038 20.4236 19.5625 20.3785C19.5976 20.3754 19.6328 20.3728 19.6689 20.3697C20.4552 20.3376 20.988 20.6894 21.5391 21.1949C21.6176 21.273 21.6946 21.3517 21.7686 21.4341C22.0177 21.6499 22.2747 21.6434 22.5889 21.6509C22.7603 21.6705 22.8771 21.7166 23 21.8394C23.0121 22.0092 23.01 22.18 23.0107 22.3502C23.0121 22.422 23.0123 22.4224 23.0137 22.4957C23.0139 22.5414 23.0134 22.5872 23.0137 22.6343C23.0141 22.6765 23.0152 22.7188 23.0156 22.7623C23.0003 22.8708 22.9996 22.8708 22.9482 22.9488C22.7837 23.0568 22.5671 23.0204 22.377 23.0191C22.3102 23.0204 22.31 23.0198 22.2422 23.0211C21.5993 23.0207 21.1532 22.737 20.6982 22.3121C20.6742 22.2896 20.6498 22.2668 20.625 22.2437C20.59 22.211 20.5897 22.2109 20.5537 22.1773C20.2076 21.8503 20.2075 21.8501 19.7529 21.7476C19.2948 21.7749 19.0087 22.1389 18.7012 22.4429C18.1803 22.9347 17.6149 23.0211 16.9297 23.0113C16.2295 22.9881 15.7922 22.5909 15.3213 22.108C15.1016 21.8943 14.8954 21.767 14.585 21.7515C14.2103 21.7604 14.0176 21.9795 13.7617 22.2261C13.2314 22.736 12.7546 23.0152 12.0107 23.0162C11.9669 23.0172 11.9231 23.018 11.8779 23.0191C11.2274 23.0216 10.7804 22.7163 10.3193 22.2886C10.2974 22.2683 10.2746 22.2471 10.252 22.2261C10.2203 22.1968 10.22 22.1967 10.1875 22.1666C9.845 21.8463 9.84481 21.8459 9.39746 21.7476C8.99566 21.7715 8.76654 22.0331 8.49316 22.2974C7.99192 22.78 7.53697 23.0266 6.82812 23.0191C6.7846 23.0187 6.74016 23.0176 6.69531 23.0172C5.9323 22.9989 5.48561 22.641 4.96582 22.108C4.74614 21.8943 4.53997 21.767 4.22949 21.7515C3.85465 21.7604 3.66238 21.9796 3.40625 22.2261C2.85991 22.7444 2.39174 23.0244 1.62891 23.0162C1.58264 23.0167 1.53594 23.0176 1.48828 23.0181C1.44391 23.018 1.39923 23.0173 1.35352 23.0172C1.31355 23.017 1.27359 23.0173 1.23242 23.0172C1.12926 23.0005 1.12916 22.9997 1.05176 22.9488C0.981088 22.8417 0.983844 22.7651 0.983398 22.6373C0.983233 22.5918 0.982593 22.5464 0.982422 22.4996C0.98292 22.452 0.983861 22.404 0.984375 22.355C0.983878 22.3077 0.982934 22.2603 0.982422 22.2115C0.982588 22.166 0.983228 22.1206 0.983398 22.0738C0.983544 22.0321 0.983249 21.9898 0.983398 21.9468C1.00284 21.822 1.02819 21.7846 1.12891 21.7105C1.28034 21.66 1.4098 21.6604 1.56934 21.6548C2.03531 21.6279 2.19578 21.4663 2.51465 21.1382ZM16.7314 15.8502C16.9483 15.8519 17.0971 15.8758 17.2852 15.9957C17.518 16.235 17.5559 16.5089 17.5869 16.8306C17.5906 16.8661 17.5949 16.9025 17.5986 16.939C17.6359 17.3075 17.6683 17.6765 17.7012 18.0455C17.7169 18.2203 17.7348 18.3953 17.7529 18.5699C17.7748 18.7815 17.7944 18.9937 17.8125 19.2056C17.8197 19.2861 17.8271 19.3666 17.8359 19.4468C17.904 20.0742 17.9039 20.074 17.7549 20.2955C17.6462 20.3938 17.5369 20.4711 17.4141 20.5504C17.3828 20.5818 17.3516 20.6137 17.3193 20.6461C17.2423 20.7226 17.242 20.7228 17.1572 20.7242C17.0392 20.6641 16.9693 20.5836 16.8799 20.4859C16.2867 19.8753 15.5737 19.526 14.7197 19.5025C13.6459 19.4913 12.9451 19.8709 12.1816 20.607C12.086 20.6795 12.0859 20.6793 11.9141 20.6793C11.8514 20.6288 11.8512 20.6288 11.7881 20.5562C11.2343 19.9741 10.5099 19.5396 9.69531 19.5074C8.73303 19.4852 8.00422 19.6909 7.27344 20.3355C7.16862 20.4403 7.06714 20.5469 6.96875 20.6578C6.88707 20.723 6.88661 20.7223 6.80371 20.7242C6.67728 20.6604 6.59499 20.5722 6.49707 20.4703C6.46028 20.4323 6.42365 20.3941 6.38574 20.355C6.35257 20.3204 6.31933 20.2853 6.28516 20.2496C6.25006 20.2251 6.24985 20.2248 6.21387 20.1998C6.12045 20.0709 6.15278 19.9319 6.16699 19.7808C6.16969 19.7464 6.173 19.7118 6.17578 19.6763C6.18494 19.5617 6.19487 19.4471 6.20508 19.3326C6.21174 19.2528 6.21804 19.1731 6.22461 19.0933C6.23856 18.9258 6.25279 18.7579 6.26758 18.5904C6.28643 18.3766 6.30479 18.1627 6.32227 17.9488C6.33583 17.7838 6.35006 17.6186 6.36426 17.4537C6.37099 17.3749 6.37732 17.2961 6.38379 17.2173C6.39297 17.1067 6.40312 16.9959 6.41309 16.8853C6.41563 16.8532 6.41827 16.8207 6.4209 16.7877C6.44762 16.5041 6.48959 16.1897 6.71484 15.9957C6.86466 15.8958 6.9685 15.8622 7.14453 15.8619C7.1971 15.8616 7.19758 15.8612 7.25098 15.8609H7.49219C7.63013 15.8605 7.7683 15.86 7.90625 15.8599C8.00488 15.8597 8.10352 15.8602 8.20215 15.8599C8.47062 15.8594 8.73935 15.8591 9.00781 15.8589C9.17538 15.8588 9.34317 15.8582 9.51074 15.858C9.97478 15.8575 10.4393 15.8571 10.9033 15.857H11.3545C11.8394 15.8568 12.3246 15.856 12.8096 15.855C13.3075 15.854 13.8058 15.8531 14.3037 15.8531C14.583 15.853 14.8623 15.8529 15.1416 15.8521C15.4045 15.8514 15.6678 15.8517 15.9307 15.8521C16.0272 15.8521 16.1242 15.8516 16.2207 15.8511C16.3522 15.8506 16.4837 15.8507 16.6152 15.8511C16.6535 15.8508 16.692 15.8505 16.7314 15.8502ZM11.2559 1.07379C11.9579 0.854444 12.7526 0.978924 13.3535 1.3902C13.8301 1.75436 14.1862 2.28857 14.2773 2.8902C14.317 3.551 14.2368 4.09717 13.8477 4.65192C13.8298 4.67823 13.8114 4.70489 13.793 4.73199C13.5673 5.0281 13.1713 5.31065 12.8164 5.42535H12.6875V7.1441H13.5469C13.9469 7.41078 14.0016 7.70995 14.1074 8.16364C14.1193 8.21317 14.1313 8.26299 14.1436 8.31403C14.176 8.44936 14.2083 8.58482 14.2402 8.72028C14.2742 8.8642 14.3084 9.00809 14.3428 9.15192C14.4083 9.42618 14.4741 9.70075 14.5391 9.97516C14.6113 10.2802 14.6841 10.5852 14.7568 10.8902C14.8757 11.3882 14.9941 11.8862 15.1123 12.3843C15.2087 12.7909 15.305 13.1977 15.4023 13.6041C15.4229 13.6899 15.4443 13.776 15.4648 13.8619C15.4932 13.9803 15.5213 14.099 15.5498 14.2173C15.5749 14.3217 15.6001 14.4265 15.625 14.5308C15.6322 14.5608 15.639 14.5908 15.6465 14.6216C15.6951 14.8256 15.6953 14.8262 15.6953 14.9214H8.30469C8.50204 13.984 8.50238 13.984 8.60059 13.5806C8.61726 13.5115 8.61686 13.5112 8.63379 13.441C8.66991 13.2913 8.70687 13.1414 8.74316 12.9918C8.76894 12.8851 8.79455 12.7781 8.82031 12.6714C8.88108 12.42 8.942 12.168 9.00293 11.9166C9.09087 11.5536 9.17887 11.1907 9.2666 10.8277C9.3319 10.5576 9.39728 10.2872 9.46289 10.0172C9.61842 9.37715 9.61839 9.37686 9.77051 8.7359C9.8057 8.58578 9.8414 8.43574 9.87695 8.28571C9.90013 8.18719 9.92271 8.08846 9.94531 7.98981C9.95911 7.93157 9.97247 7.87323 9.98633 7.815C9.99769 7.76602 10.0098 7.71703 10.0215 7.66656C10.1105 7.40111 10.2117 7.28893 10.4531 7.1441H11.3125V5.42535L11.0977 5.38239C10.4989 5.11564 10.0967 4.71071 9.85742 4.09918C9.62712 3.46622 9.67334 2.84183 9.94043 2.22711C10.2139 1.68213 10.6924 1.28799 11.2559 1.07379Z" fill="black"/>
</g>
<defs>
<clipPath id="clip0_904_11887">
<rect width="24" height="24" fill="white"/>
</clipPath>
</defs>
</svg>
