<svg width="24" height="24" viewBox="0 0 24 24" fill="none" xmlns="http://www.w3.org/2000/svg">
<g clip-path="url(#clip0_2_1195)">
<path d="M11.1089 0.0265884C9.33139 0.195429 8.00882 0.570629 6.51271 1.33041C4.73989 2.23558 3.14998 3.66133 1.98686 5.38725C1.78988 5.68272 1.4522 6.28304 1.23646 6.7239C0.448545 8.3185 0.0733456 9.82399 0.00768566 11.6015C-0.0626642 13.5994 0.350055 15.5036 1.24115 17.2951C1.86492 18.5568 2.51214 19.4479 3.52987 20.4703C4.56636 21.5021 5.46215 22.1446 6.72376 22.7637C7.60548 23.1952 8.17297 23.4062 9.06875 23.6313C11.4138 24.2223 13.7681 24.1097 16.0568 23.2983C16.7557 23.0498 17.9657 22.4448 18.5894 22.0273C20.3013 20.8877 21.7177 19.3165 22.651 17.5109C23.4999 15.8788 23.922 14.256 23.9923 12.3988C24.0627 10.4009 23.6499 8.49672 22.7588 6.70514C22.1773 5.53264 21.5254 4.60871 20.6108 3.66603C19.5978 2.61547 18.6035 1.89321 17.2762 1.23661C15.888 0.551868 14.5936 0.181358 13.0552 0.040659C12.5769 -0.00155067 11.4935 -0.010931 11.1089 0.0265884ZM16.7557 6.11889C18.3737 6.5363 19.3398 8.20594 18.8943 9.82399C18.6973 10.5509 18.627 10.64 16.7181 12.5442C15.0907 14.1716 14.9547 14.2935 14.6264 14.453C14.1668 14.6734 13.7634 14.7672 13.2428 14.7672C11.939 14.7672 10.8322 13.9699 10.4007 12.7083C10.3491 12.5676 10.3116 12.3847 10.3116 12.2956C10.3116 11.8266 10.7759 11.5687 11.1605 11.8266C11.2871 11.911 11.3434 12.0048 11.4372 12.2675C11.6576 12.8959 11.9531 13.2336 12.5018 13.4916C12.7457 13.6041 12.8301 13.6182 13.2663 13.6182C14.0683 13.6182 14.0308 13.6463 15.9302 11.7516C17.3044 10.3821 17.5576 10.1054 17.6843 9.85682C18.1392 8.93758 17.7546 7.79791 16.8401 7.34767C16.5446 7.20228 16.5024 7.1929 16.0099 7.1929C15.2595 7.1929 15.1376 7.25856 14.209 8.17311C13.4258 8.94227 13.3179 9.00793 13.013 8.90475C12.8207 8.84378 12.7129 8.73122 12.6566 8.53893C12.5769 8.24346 12.6566 8.12152 13.4914 7.30077C14.1621 6.63948 14.3262 6.50347 14.6264 6.35808C14.8187 6.26428 15.0954 6.15641 15.2361 6.11889C15.5878 6.02509 16.3945 6.02509 16.7557 6.11889ZM11.7186 9.32685C12.3377 9.53321 12.9333 9.99282 13.2944 10.5369C13.4867 10.8183 13.7353 11.4702 13.7353 11.6859C13.7353 12.108 13.2569 12.3753 12.8864 12.1549C12.7457 12.0705 12.6613 11.9298 12.5628 11.6015C12.469 11.2966 12.3002 11.0434 12.0234 10.7901C11.4278 10.2414 10.4758 10.1617 9.7957 10.5931C9.67845 10.6682 8.87177 11.442 8.00413 12.3144C6.12813 14.1951 6.16096 14.1482 6.16096 14.9783C6.16096 15.466 6.17034 15.5129 6.31104 15.8037C6.49395 16.1789 6.83163 16.5072 7.20683 16.6808C7.44602 16.7933 7.53044 16.8074 7.99006 16.8074C8.74045 16.8074 8.87177 16.737 9.77225 15.8506C10.1568 15.466 10.5227 15.1284 10.5789 15.1002C11.001 14.8845 11.5263 15.3582 11.3434 15.7943C11.3153 15.8694 10.9354 16.2774 10.5086 16.6995C9.83791 17.3561 9.67376 17.4921 9.3736 17.6375C8.88584 17.8767 8.50126 17.9658 7.96661 17.9611C7.11772 17.9564 6.45643 17.6797 5.85611 17.07C5.22765 16.4322 4.98846 15.7943 5.02129 14.8376C5.04005 14.3545 5.0635 14.2279 5.18075 13.9183C5.26048 13.7261 5.40118 13.4494 5.49498 13.3087C5.58878 13.168 6.41891 12.305 7.34284 11.3858C9.18131 9.56135 9.2798 9.48162 10.0396 9.27995C10.4945 9.15332 11.2731 9.17677 11.7186 9.32685Z" fill="black"/>
</g>
<defs>
<clipPath id="clip0_2_1195">
<rect width="24" height="24" fill="white"/>
</clipPath>
</defs>
</svg>
