<svg width="24" height="24" viewBox="0 0 24 24" fill="none" xmlns="http://www.w3.org/2000/svg">
<path d="M6.375 22.125C5.75625 22.125 5.22675 21.9049 4.7865 21.4646C4.3455 21.0236 4.125 20.4937 4.125 19.875V5.25C3.80625 5.25 3.53888 5.14237 3.32288 4.92712C3.10763 4.71112 3 4.44375 3 4.125C3 3.80625 3.10763 3.53888 3.32288 3.32288C3.53888 3.10763 3.80625 3 4.125 3H8.625C8.625 2.68125 8.733 2.41387 8.949 2.19787C9.16425 1.98262 9.43125 1.875 9.75 1.875H14.25C14.5688 1.875 14.8361 1.98262 15.0521 2.19787C15.2674 2.41387 15.375 2.68125 15.375 3H19.875C20.1938 3 20.4608 3.10763 20.676 3.32288C20.892 3.53888 21 3.80625 21 4.125C21 4.44375 20.892 4.71112 20.676 4.92712C20.4608 5.14237 20.1938 5.25 19.875 5.25V19.875C19.875 20.4937 19.6549 21.0236 19.2146 21.4646C18.7736 21.9049 18.2437 22.125 17.625 22.125H6.375ZM8.625 16.5C8.625 16.8188 8.733 17.0857 8.949 17.301C9.16425 17.517 9.43125 17.625 9.75 17.625C10.0687 17.625 10.3361 17.517 10.5521 17.301C10.7674 17.0857 10.875 16.8188 10.875 16.5V8.625C10.875 8.30625 10.7674 8.03887 10.5521 7.82287C10.3361 7.60762 10.0687 7.5 9.75 7.5C9.43125 7.5 9.16425 7.60762 8.949 7.82287C8.733 8.03887 8.625 8.30625 8.625 8.625V16.5ZM13.125 16.5C13.125 16.8188 13.233 17.0857 13.449 17.301C13.6643 17.517 13.9312 17.625 14.25 17.625C14.5688 17.625 14.8361 17.517 15.0521 17.301C15.2674 17.0857 15.375 16.8188 15.375 16.5V8.625C15.375 8.30625 15.2674 8.03887 15.0521 7.82287C14.8361 7.60762 14.5688 7.5 14.25 7.5C13.9312 7.5 13.6643 7.60762 13.449 7.82287C13.233 8.03887 13.125 8.30625 13.125 8.625V16.5Z" fill="black"/>
</svg>
