<svg width="24" height="24" viewBox="0 0 24 24" fill="none" xmlns="http://www.w3.org/2000/svg">
<path d="M9.22794 18.353C8.64559 18.353 8.14724 18.1458 7.73288 17.7315C7.31782 17.3164 7.11029 16.8177 7.11029 16.2353V3.52947C7.11029 2.94711 7.31782 2.44841 7.73288 2.03335C8.14724 1.619 8.64559 1.41182 9.22794 1.41182H18.7574C19.3397 1.41182 19.8384 1.619 20.2535 2.03335C20.6678 2.44841 20.875 2.94711 20.875 3.52947V16.2353C20.875 16.8177 20.6678 17.3164 20.2535 17.7315C19.8384 18.1458 19.3397 18.353 18.7574 18.353H9.22794ZM4.99265 22.5883C4.41029 22.5883 3.91159 22.3811 3.49653 21.9668C3.08218 21.5517 2.875 21.053 2.875 20.4706V6.70594C2.875 6.40594 2.97665 6.15429 3.17994 5.951C3.38253 5.74841 3.63382 5.64711 3.93382 5.64711C4.23382 5.64711 4.48547 5.74841 4.68876 5.951C4.89135 6.15429 4.99265 6.40594 4.99265 6.70594V20.4706H15.5809C15.8809 20.4706 16.1325 20.5723 16.3358 20.7756C16.5384 20.9782 16.6397 21.2295 16.6397 21.5295C16.6397 21.8295 16.5384 22.0808 16.3358 22.2833C16.1325 22.4866 15.8809 22.5883 15.5809 22.5883H4.99265Z" fill="black"/>
</svg>
