<svg width="24" height="24" viewBox="0 0 24 24" fill="none" xmlns="http://www.w3.org/2000/svg">
<path d="M8 13.65V7C8 6.71667 8.09583 6.47917 8.2875 6.2875C8.47917 6.09583 8.71667 6 9 6H10C10.2833 6 10.5208 6.09583 10.7125 6.2875C10.9042 6.47917 11 6.71667 11 7V13.65L10.875 13.525C10.4917 13.1583 10.0333 12.975 9.5 12.975C8.96667 12.975 8.50833 13.1583 8.125 13.525L8 13.65ZM13 15.15V3C13 2.71667 13.0958 2.47917 13.2875 2.2875C13.4792 2.09583 13.7167 2 14 2H15C15.2833 2 15.5208 2.09583 15.7125 2.2875C15.9042 2.47917 16 2.71667 16 3V12.15L13 15.15ZM3 18.6V11C3 10.7167 3.09583 10.4792 3.2875 10.2875C3.47917 10.0958 3.71667 10 4 10H5C5.28333 10 5.52083 10.0958 5.7125 10.2875C5.90417 10.4792 6 10.7167 6 11V15.6L3 18.6ZM5.4 21.05C4.96667 21.05 4.6625 20.8458 4.4875 20.4375C4.3125 20.0292 4.38333 19.6667 4.7 19.35L8.8 15.25C8.98333 15.0667 9.20417 14.9667 9.4625 14.95C9.72083 14.9333 9.95 15.0167 10.15 15.2L13 17.65L18.6 12.05H18C17.7167 12.05 17.4792 11.9542 17.2875 11.7625C17.0958 11.5708 17 11.3333 17 11.05C17 10.7667 17.0958 10.5292 17.2875 10.3375C17.4792 10.1458 17.7167 10.05 18 10.05H21C21.2833 10.05 21.5208 10.1458 21.7125 10.3375C21.9042 10.5292 22 10.7667 22 11.05V14.05C22 14.3333 21.9042 14.5708 21.7125 14.7625C21.5208 14.9542 21.2833 15.05 21 15.05C20.7167 15.05 20.4792 14.9542 20.2875 14.7625C20.0958 14.5708 20 14.3333 20 14.05V13.45L13.75 19.7C13.5667 19.8833 13.3458 19.9833 13.0875 20C12.8292 20.0167 12.6 19.9333 12.4 19.75L9.55 17.3L6.1 20.75C6.01667 20.8333 5.9125 20.9042 5.7875 20.9625C5.6625 21.0208 5.53333 21.05 5.4 21.05Z" fill="black"/>
</svg>
