<svg width="24" height="24" viewBox="0 0 24 24" fill="none" xmlns="http://www.w3.org/2000/svg">
<g clip-path="url(#clip0_922_11949)">
<path d="M14.1816 22.4131C14.2453 22.4131 14.3073 22.4192 14.3662 22.4326C14.4253 22.4464 14.4771 22.4679 14.5225 22.4951C14.8134 22.6588 15.1138 22.7815 15.4229 22.8633C15.7317 22.945 16.0453 22.9853 16.3633 22.9854H16.9092C17.0637 22.9854 17.1935 23.0379 17.2979 23.1426C17.4025 23.2469 17.4551 23.3768 17.4551 23.5312C17.455 23.6855 17.4023 23.8147 17.2979 23.9189C17.1935 24.0237 17.0637 24.0762 16.9092 24.0762H16.3633C15.9816 24.0761 15.6086 24.0313 15.2451 23.9404C14.8816 23.8495 14.527 23.713 14.1816 23.5312C13.8363 23.713 13.4792 23.8496 13.1113 23.9404C12.7431 24.0313 12.3726 24.0762 12 24.0762C11.6273 24.0762 11.2566 24.0313 10.8887 23.9404C10.5205 23.8495 10.1637 23.713 9.81836 23.5312C9.47296 23.713 9.11845 23.8495 8.75488 23.9404C8.39132 24.0313 8.01846 24.0762 7.63672 24.0762H7.09082C6.93638 24.0761 6.80744 24.0236 6.70312 23.9189C6.59846 23.8146 6.54596 23.6857 6.5459 23.5312C6.5459 23.3767 6.5984 23.2469 6.70312 23.1426C6.8074 23.0381 6.93649 22.9854 7.09082 22.9854H7.63672C7.9547 22.9853 8.26825 22.945 8.57715 22.8633C8.8862 22.7815 9.18666 22.6587 9.47754 22.4951C9.52298 22.4679 9.5749 22.4464 9.63379 22.4326C9.69306 22.4192 9.75472 22.4131 9.81836 22.4131C9.88198 22.4131 9.94367 22.4192 10.0029 22.4326C10.0323 22.4395 10.0599 22.4487 10.0859 22.459L10.3789 22.6035C10.6005 22.7049 10.8277 22.784 11.0596 22.8418C11.3685 22.9192 11.682 22.958 12 22.958C12.3182 22.958 12.6323 22.9193 12.9414 22.8418C13.173 22.784 13.3997 22.7048 13.6211 22.6035L13.9141 22.459C13.9403 22.4486 13.9683 22.4396 13.998 22.4326C14.0569 22.4192 14.1181 22.4131 14.1816 22.4131ZM13.0908 12.0762C13.2454 12.0762 13.3748 12.129 13.4795 12.2334C13.5839 12.3381 13.6367 12.4675 13.6367 12.6221V13.7129H15.2725C15.5725 13.7129 15.8301 13.8194 16.0439 14.0332C16.2574 14.2467 16.3633 14.5037 16.3633 14.8037V17.3125L17.0732 17.5586C17.2639 17.6313 17.3777 17.7383 17.4141 17.8789C17.4503 18.0198 17.455 18.1404 17.4277 18.2402L16.3906 21.8945C16.0635 21.8945 15.7568 21.8359 15.4707 21.7178C15.1842 21.5996 14.9229 21.4494 14.6865 21.2676C14.6138 21.2131 14.5344 21.1697 14.4482 21.1377C14.3617 21.1061 14.2725 21.0898 14.1816 21.0898C14.0909 21.0899 14.0024 21.1061 13.916 21.1377C13.8299 21.1697 13.7504 21.2131 13.6777 21.2676C13.4414 21.4494 13.1822 21.5996 12.9004 21.7178C12.6186 21.836 12.3182 21.8945 12 21.8945C11.6821 21.8945 11.3822 21.8358 11.1006 21.7178C10.8189 21.5997 10.5595 21.4493 10.3232 21.2676C10.2506 21.2131 10.171 21.1697 10.085 21.1377C9.99843 21.1061 9.90925 21.0898 9.81836 21.0898C9.72745 21.0898 9.63891 21.1061 9.55273 21.1377C9.46619 21.1697 9.3862 21.213 9.31348 21.2676C9.07723 21.4493 8.81629 21.5996 8.53027 21.7178C8.24378 21.8359 7.93659 21.8945 7.60938 21.8945L6.57324 18.2402C6.54598 18.1312 6.55668 18.0038 6.60645 17.8584C6.65663 17.7129 6.7641 17.6131 6.92773 17.5586L7.63672 17.3125V14.8037C7.63672 14.5037 7.74322 14.2467 7.95703 14.0332C8.17047 13.8194 8.42757 13.7129 8.72754 13.7129H10.3633V12.6221C10.3633 12.4677 10.416 12.3381 10.5205 12.2334C10.6249 12.129 10.7546 12.0762 10.9092 12.0762H13.0908ZM8.72754 16.958L11.6592 16.0039C11.7682 15.9676 11.8819 15.9492 12 15.9492C12.1181 15.9492 12.2318 15.9676 12.3408 16.0039L15.2725 16.958V14.8037H8.72754V16.958ZM11.7412 0C13.805 0.000182426 15.4745 1.64413 15.4746 3.67676C15.4746 6.42711 11.7611 10.4841 11.7412 10.5059C11.7412 10.5059 8.00781 6.43451 8.00781 3.67676C8.00794 1.64401 9.67725 0 11.7412 0ZM11.7412 1.05078C10.2693 1.05078 9.07435 2.22708 9.07422 3.67676C9.07422 5.17382 10.6319 7.46468 11.7412 8.86719C12.8719 7.45417 14.4072 5.18958 14.4072 3.67676C14.4071 2.22719 13.213 1.05096 11.7412 1.05078ZM11.7412 2.36426C12.4774 2.36444 13.0741 2.95171 13.0742 3.67676C13.0742 4.40191 12.4774 4.99005 11.7412 4.99023C11.0048 4.99023 10.4072 4.40203 10.4072 3.67676C10.4074 2.9516 11.0049 2.36426 11.7412 2.36426Z" fill="#2B8838"/>
</g>
<defs>
<clipPath id="clip0_922_11949">
<rect width="24" height="24" fill="white"/>
</clipPath>
</defs>
</svg>
