<svg width="24" height="24" viewBox="0 0 24 24" fill="none" xmlns="http://www.w3.org/2000/svg">
<path d="M3.95 20L2.05 13.3C2 13.1 2.02067 12.8667 2.112 12.6C2.204 12.3333 2.4 12.15 2.7 12.05L4 11.6V7C4 6.45 4.196 5.97933 4.588 5.588C4.97933 5.196 5.45 5 6 5H9V3C9 2.71667 9.096 2.479 9.288 2.287C9.47933 2.09567 9.71667 2 10 2H14C14.2833 2 14.521 2.09567 14.713 2.287C14.9043 2.479 15 2.71667 15 3V5H18C18.55 5 19.021 5.196 19.413 5.588C19.8043 5.97933 20 6.45 20 7V11.6L21.3 12.05C21.65 12.1833 21.8583 12.379 21.925 12.637C21.9917 12.8957 22 13.1167 21.95 13.3L20.05 20C19.45 20 18.8877 19.8917 18.363 19.675C17.8377 19.4583 17.3583 19.1833 16.925 18.85C16.7917 18.75 16.646 18.6707 16.488 18.612C16.3293 18.554 16.1667 18.525 16 18.525C15.8333 18.525 15.6707 18.554 15.512 18.612C15.354 18.6707 15.2083 18.75 15.075 18.85C14.6417 19.1833 14.1667 19.4583 13.65 19.675C13.1333 19.8917 12.5833 20 12 20C11.4167 20 10.8667 19.8917 10.35 19.675C9.83333 19.4583 9.35833 19.1833 8.925 18.85C8.79167 18.75 8.646 18.6707 8.488 18.612C8.32933 18.554 8.16667 18.525 8 18.525C7.83333 18.525 7.671 18.554 7.513 18.612C7.35433 18.6707 7.20833 18.75 7.075 18.85C6.64167 19.1833 6.16267 19.4583 5.638 19.675C5.11267 19.8917 4.55 20 3.95 20ZM3 24C2.71667 24 2.47933 23.904 2.288 23.712C2.096 23.5207 2 23.2833 2 23C2 22.7167 2.096 22.4793 2.288 22.288C2.47933 22.096 2.71667 22 3 22H4C4.58333 22 5.15833 21.925 5.725 21.775C6.29167 21.625 6.84167 21.4 7.375 21.1C7.45833 21.05 7.554 21.0123 7.662 20.987C7.77067 20.9623 7.88333 20.95 8 20.95C8.11667 20.95 8.22933 20.9623 8.338 20.987C8.446 21.0123 8.54167 21.05 8.625 21.1C9.15833 21.3833 9.70833 21.5957 10.275 21.737C10.8417 21.879 11.4167 21.95 12 21.95C12.5833 21.95 13.1583 21.879 13.725 21.737C14.2917 21.5957 14.8417 21.3833 15.375 21.1C15.4583 21.05 15.5543 21.0123 15.663 20.987C15.771 20.9623 15.8833 20.95 16 20.95C16.1167 20.95 16.229 20.9623 16.337 20.987C16.4457 21.0123 16.5417 21.05 16.625 21.1C17.1583 21.4 17.7083 21.625 18.275 21.775C18.8417 21.925 19.4167 22 20 22H21C21.2833 22 21.5207 22.096 21.712 22.288C21.904 22.4793 22 22.7167 22 23C22 23.2833 21.904 23.5207 21.712 23.712C21.5207 23.904 21.2833 24 21 24H20C19.3 24 18.6167 23.9167 17.95 23.75C17.2833 23.5833 16.6333 23.3333 16 23C15.3667 23.3333 14.7127 23.5833 14.038 23.75C13.3627 23.9167 12.6833 24 12 24C11.3167 24 10.6377 23.9167 9.963 23.75C9.28767 23.5833 8.63333 23.3333 8 23C7.36667 23.3333 6.71667 23.5833 6.05 23.75C5.38333 23.9167 4.7 24 4 24H3ZM6 10.95L11.375 9.2C11.575 9.13333 11.7833 9.1 12 9.1C12.2167 9.1 12.425 9.13333 12.625 9.2L18 10.95V7H6V10.95Z" fill="black"/>
</svg>
